<svg xmlns="http://www.w3.org/2000/svg" xmlns:xlink="http://www.w3.org/1999/xlink" width="500" zoomAndPan="magnify" viewBox="0 0 375 374.999991" height="500" preserveAspectRatio="xMidYMid meet" version="1.0"><defs><g/><clipPath id="1e89dccca1"><path d="M 121 139 L 186 139 L 186 253.144531 L 121 253.144531 Z M 121 139 " clip-rule="nonzero"/></clipPath></defs><rect x="-37.5" width="450" fill="#ffffff" y="-37.499999" height="449.999989" fill-opacity="1"/><rect x="-37.5" width="450" fill="#b4a7a7" y="-37.499999" height="449.999989" fill-opacity="1"/><g clip-path="url(#1e89dccca1)"><path fill="#b4a7a7" d="M 179.675781 150.429688 C 169.074219 140.011719 154.054688 136.742188 141.671875 142.152344 C 129.1875 147.613281 120.96875 161.136719 121.46875 175.792969 C 121.828125 186.296875 126.160156 195.449219 131.957031 203.925781 C 145.703125 224.019531 164.566406 238.730469 183.957031 252.839844 C 184.238281 253.042969 184.722656 253.117188 185.234375 253.09375 L 185.234375 155.9375 C 183.25 153.96875 181.46875 152.191406 179.675781 150.429688 Z M 179.675781 150.429688 " fill-opacity="1" fill-rule="nonzero"/></g><path fill="#d2d7df" d="M 186.164062 245.863281 C 185.371094 245.863281 184.605469 245.683594 184.046875 245.277344 C 164.621094 231.140625 144.433594 215.5625 129.898438 194.308594 C 122.640625 183.699219 119.105469 174.183594 118.769531 164.363281 C 118.230469 148.589844 127.015625 133.992188 140.628906 128.042969 C 154.097656 122.15625 170.21875 125.640625 181.703125 136.929688 C 182.964844 138.167969 184.21875 139.410156 185.535156 140.71875 L 186.375 141.554688 C 186.753906 141.167969 187.125 140.789062 187.488281 140.414062 C 189.015625 138.851562 190.460938 137.371094 191.992188 135.964844 C 204.621094 124.351562 222.179688 121.898438 235.683594 129.863281 C 249.726562 138.144531 256.765625 155.664062 252.800781 172.464844 C 249.578125 186.121094 241.515625 196.890625 234.855469 204.75 C 221.265625 220.769531 204.78125 233.585938 188.996094 245.042969 C 188.296875 245.546875 187.210938 245.863281 186.164062 245.863281 Z M 154.253906 128.453125 C 150.035156 128.453125 145.855469 129.285156 141.925781 131.003906 C 129.511719 136.429688 121.507812 149.789062 122 164.25 C 122.3125 173.433594 125.671875 182.402344 132.566406 192.484375 C 146.8125 213.3125 166.75 228.695312 185.949219 242.664062 C 186.101562 242.679688 186.859375 242.585938 187.101562 242.425781 C 202.722656 231.085938 219.023438 218.421875 232.390625 202.660156 C 238.820312 195.078125 246.589844 184.710938 249.65625 171.722656 C 253.296875 156.285156 246.878906 140.214844 234.042969 132.648438 C 221.773438 125.410156 205.753906 127.699219 194.179688 138.34375 C 192.710938 139.691406 191.296875 141.140625 189.800781 142.671875 C 189.070312 143.421875 188.320312 144.191406 187.53125 144.984375 C 186.898438 145.613281 185.878906 145.613281 185.246094 144.988281 L 183.253906 143.011719 C 181.945312 141.707031 180.695312 140.46875 179.4375 139.234375 C 172.28125 132.199219 163.1875 128.453125 154.253906 128.453125 Z M 154.253906 128.453125 " fill-opacity="1" fill-rule="nonzero"/><g fill="#000000" fill-opacity="1"><g transform="translate(135.698606, 188.120376)"><g><path d="M 2.53125 0 C 2.53125 -0.0703125 2.570312 -0.644531 2.65625 -1.71875 C 2.675781 -2.050781 2.6875 -2.554688 2.6875 -3.234375 L 2.703125 -16.265625 L 2.703125 -16.359375 C 2.679688 -19.078125 2.644531 -20.644531 2.59375 -21.0625 L 4.828125 -21.0625 L 4.8125 -20.984375 L 4.796875 -19.25 L 4.75 -17.640625 L 4.75 -17.5 L 4.71875 -5.625 L 4.71875 -3.65625 C 4.71875 -2.570312 4.722656 -1.9375 4.734375 -1.75 L 8.46875 -1.765625 L 8.625 -1.765625 C 12.207031 -1.847656 14.1875 -1.898438 14.5625 -1.921875 L 14.15625 0 Z M 2.53125 0 "/></g></g></g><g fill="#000000" fill-opacity="1"><g transform="translate(150.365017, 188.120376)"><g><path d="M 2.53125 0 C 2.53125 -0.144531 2.566406 -0.78125 2.640625 -1.90625 C 2.679688 -2.40625 2.703125 -3.050781 2.703125 -3.84375 L 2.6875 -16.484375 C 2.6875 -16.503906 2.691406 -16.546875 2.703125 -16.609375 C 2.710938 -16.828125 2.71875 -17.082031 2.71875 -17.375 C 2.71875 -17.726562 2.695312 -18.207031 2.65625 -18.8125 C 2.59375 -19.84375 2.5625 -20.5625 2.5625 -20.96875 L 15.0625 -20.96875 L 14.421875 -18.890625 C 13.566406 -19.046875 12.40625 -19.125 10.9375 -19.125 L 4.859375 -19.15625 L 4.8125 -9.640625 L 14.953125 -9.625 L 14.28125 -7.5 C 14.15625 -7.507812 13.597656 -7.5625 12.609375 -7.65625 C 12.015625 -7.71875 11.238281 -7.742188 10.28125 -7.734375 L 4.8125 -7.71875 L 4.828125 -1.859375 L 13.53125 -1.8125 C 13.59375 -1.8125 13.957031 -1.820312 14.625 -1.84375 C 15.144531 -1.851562 15.503906 -1.878906 15.703125 -1.921875 L 15.109375 0 Z M 2.53125 0 "/></g></g></g><g fill="#000000" fill-opacity="1"><g transform="translate(167.326905, 188.120376)"><g/></g></g><g fill="#000000" fill-opacity="1"><g transform="translate(174.906605, 188.120376)"><g><path d="M 2.609375 0 C 2.609375 -0.0703125 2.613281 -0.492188 2.625 -1.265625 L 2.65625 -2.453125 L 2.65625 -16.5625 C 2.625 -19.039062 2.582031 -20.503906 2.53125 -20.953125 L 15.296875 -20.953125 L 14.59375 -19.046875 L 12.015625 -19.046875 L 9.71875 -19.078125 C 9.664062 -19.078125 9.628906 -19.078125 9.609375 -19.078125 L 4.765625 -19.0625 L 4.71875 -9.671875 L 14.875 -9.671875 L 14.390625 -7.734375 L 14.234375 -7.734375 C 12.597656 -7.773438 11.316406 -7.796875 10.390625 -7.796875 L 4.734375 -7.75 C 4.710938 -6.78125 4.703125 -6.003906 4.703125 -5.421875 L 4.734375 -2.828125 C 4.734375 -2.628906 4.753906 -2.171875 4.796875 -1.453125 C 4.816406 -1.171875 4.835938 -0.6875 4.859375 0 Z M 2.609375 0 "/></g></g></g><g fill="#000000" fill-opacity="1"><g transform="translate(191.12899, 188.120376)"><g><path d="M 12.234375 -21.609375 C 14.328125 -21.609375 16.234375 -21.046875 17.953125 -19.921875 C 19.671875 -18.816406 20.960938 -17.367188 21.828125 -15.578125 C 22.566406 -14.066406 22.9375 -12.375 22.9375 -10.5 C 22.9375 -7.476562 21.90625 -4.894531 19.84375 -2.75 C 17.726562 -0.53125 15.082031 0.578125 11.90625 0.578125 C 10.082031 0.578125 8.320312 0.078125 6.625 -0.921875 C 4.695312 -2.066406 3.265625 -3.625 2.328125 -5.59375 C 1.617188 -7.082031 1.265625 -8.710938 1.265625 -10.484375 C 1.265625 -13.796875 2.429688 -16.515625 4.765625 -18.640625 C 5.960938 -19.742188 7.320312 -20.539062 8.84375 -21.03125 C 10.007812 -21.414062 11.140625 -21.609375 12.234375 -21.609375 Z M 12.265625 -19.546875 C 10.710938 -19.546875 9.253906 -19.128906 7.890625 -18.296875 C 6.390625 -17.390625 5.25 -16.191406 4.46875 -14.703125 C 3.757812 -13.367188 3.40625 -11.90625 3.40625 -10.3125 C 3.40625 -7.738281 4.296875 -5.609375 6.078125 -3.921875 C 7.003906 -3.023438 8.078125 -2.363281 9.296875 -1.9375 C 10.203125 -1.632812 11.082031 -1.484375 11.9375 -1.484375 C 13.800781 -1.484375 15.457031 -1.960938 16.90625 -2.921875 C 18.351562 -3.898438 19.4375 -5.234375 20.15625 -6.921875 C 20.664062 -8.109375 20.921875 -9.304688 20.921875 -10.515625 C 20.921875 -12.929688 20.097656 -15.035156 18.453125 -16.828125 C 17.546875 -17.796875 16.472656 -18.507812 15.234375 -18.96875 C 14.242188 -19.351562 13.253906 -19.546875 12.265625 -19.546875 Z M 12.265625 -19.546875 "/></g></g></g><g fill="#000000" fill-opacity="1"><g transform="translate(215.192976, 188.120376)"><g><path d="M 22.640625 -9.625 C 22.578125 -7.78125 22.171875 -6.160156 21.421875 -4.765625 C 20.535156 -3.109375 19.257812 -1.804688 17.59375 -0.859375 C 15.988281 0.0664062 14.21875 0.53125 12.28125 0.53125 C 9.039062 0.53125 6.382812 -0.675781 4.3125 -3.09375 C 2.425781 -5.3125 1.484375 -7.8125 1.484375 -10.59375 C 1.484375 -12.34375 1.890625 -14.019531 2.703125 -15.625 C 3.609375 -17.4375 4.890625 -18.867188 6.546875 -19.921875 C 8.304688 -21.054688 10.238281 -21.625 12.34375 -21.625 C 15.675781 -21.625 18.457031 -20.296875 20.6875 -17.640625 L 19.25 -16.078125 C 17.414062 -18.410156 15.117188 -19.578125 12.359375 -19.578125 C 9.585938 -19.578125 7.367188 -18.523438 5.703125 -16.421875 C 4.328125 -14.703125 3.640625 -12.753906 3.640625 -10.578125 C 3.640625 -8.992188 4.035156 -7.476562 4.828125 -6.03125 C 5.671875 -4.507812 6.785156 -3.351562 8.171875 -2.5625 C 9.421875 -1.84375 10.8125 -1.484375 12.34375 -1.484375 C 14.414062 -1.484375 16.179688 -2.070312 17.640625 -3.25 C 19.097656 -4.4375 19.953125 -5.960938 20.203125 -7.828125 L 14.640625 -7.828125 L 13.40625 -7.75 L 12.359375 -7.6875 L 12.203125 -7.671875 L 12.234375 -9.625 Z M 22.640625 -9.625 "/></g></g></g></svg>