<svg xmlns="http://www.w3.org/2000/svg" xmlns:xlink="http://www.w3.org/1999/xlink" width="500" zoomAndPan="magnify" viewBox="0 0 375 374.999991" height="500" preserveAspectRatio="xMidYMid meet" version="1.0"><defs><g/></defs><g fill="#000000" fill-opacity="1"><g transform="translate(92.123898, 235.624985)"><g><path d="M 17 -29.390625 C 17 -26.222656 16.859375 -23.050781 16.578125 -19.875 C 16.304688 -16.695312 16.171875 -13.492188 16.171875 -10.265625 C 16.171875 -8.734375 16.304688 -7.210938 16.578125 -5.703125 C 16.859375 -4.203125 17 -2.710938 17 -1.234375 C 17 -0.242188 16.695312 0.753906 16.09375 1.765625 C 15.488281 2.773438 14.75 3.632812 13.875 4.34375 C 13 5.0625 12.125 5.421875 11.25 5.421875 C 10.425781 5.421875 9.546875 5.0625 8.609375 4.34375 C 7.679688 3.632812 6.863281 2.742188 6.15625 1.671875 C 5.445312 0.609375 5.007812 -0.492188 4.84375 -1.640625 C 4.351562 -6.078125 4.109375 -10.507812 4.109375 -14.9375 C 4.109375 -20.519531 4.269531 -26.269531 4.59375 -32.1875 C 4.925781 -38.101562 5.285156 -43.878906 5.671875 -49.515625 C 5.828125 -52.359375 6.300781 -54.351562 7.09375 -55.5 C 7.894531 -56.65625 9.222656 -57.234375 11.078125 -57.234375 C 13.109375 -57.234375 14.753906 -56.519531 16.015625 -55.09375 C 17.273438 -53.664062 17.90625 -51.804688 17.90625 -49.515625 C 17.90625 -46.503906 17.738281 -43.546875 17.40625 -40.640625 C 17.082031 -37.742188 16.921875 -34.84375 16.921875 -31.9375 C 16.921875 -31.550781 16.921875 -31.140625 16.921875 -30.703125 C 16.921875 -30.265625 16.945312 -29.828125 17 -29.390625 Z M 17 -29.390625 "/></g></g></g><g fill="#000000" fill-opacity="1"><g transform="translate(112.484401, 235.624985)"><g><path d="M 35.71875 -12.484375 C 36.15625 -11.765625 36.753906 -11.28125 37.515625 -11.03125 C 38.285156 -10.789062 39.132812 -10.644531 40.0625 -10.59375 C 41 -10.539062 41.890625 -10.429688 42.734375 -10.265625 C 43.585938 -10.097656 44.285156 -9.726562 44.828125 -9.15625 C 45.378906 -8.582031 45.65625 -7.664062 45.65625 -6.40625 C 45.65625 -4.757812 45.175781 -3.414062 44.21875 -2.375 C 43.257812 -1.34375 42.050781 -0.566406 40.59375 -0.046875 C 39.144531 0.472656 37.613281 0.828125 36 1.015625 C 34.382812 1.210938 32.921875 1.3125 31.609375 1.3125 C 29.585938 1.3125 27.617188 0.953125 25.703125 0.234375 C 23.785156 -0.472656 21.976562 -1.703125 20.28125 -3.453125 C 19.238281 -4.546875 18.222656 -5.351562 17.234375 -5.875 C 16.253906 -6.394531 15.191406 -6.65625 14.046875 -6.65625 C 13.222656 -6.65625 12.316406 -6.488281 11.328125 -6.15625 C 10.347656 -5.832031 9.390625 -5.671875 8.453125 -5.671875 C 7.253906 -5.671875 5.992188 -6.050781 4.671875 -6.8125 C 3.359375 -7.582031 2.25 -8.566406 1.34375 -9.765625 C 0.445312 -10.972656 0 -12.207031 0 -13.46875 C 0 -15.269531 0.640625 -16.828125 1.921875 -18.140625 C 3.210938 -19.453125 4.648438 -20.109375 6.234375 -20.109375 C 6.566406 -20.109375 6.910156 -20.09375 7.265625 -20.0625 C 7.617188 -20.039062 7.9375 -20.03125 8.21875 -20.03125 C 10.070312 -20.03125 11.519531 -20.535156 12.5625 -21.546875 C 13.601562 -22.566406 14.644531 -23.867188 15.6875 -25.453125 C 16.613281 -27.253906 17.9375 -28.8125 19.65625 -30.125 C 21.382812 -31.445312 23.316406 -32.460938 25.453125 -33.171875 C 27.585938 -33.878906 29.664062 -34.234375 31.6875 -34.234375 C 34.101562 -34.234375 35.992188 -33.585938 37.359375 -32.296875 C 38.722656 -31.015625 39.691406 -29.429688 40.265625 -27.546875 C 40.847656 -25.660156 41.140625 -23.84375 41.140625 -22.09375 C 41.140625 -21.15625 40.988281 -20.222656 40.6875 -19.296875 C 40.382812 -18.367188 39.820312 -17.4375 39 -16.5 C 38.457031 -15.894531 37.773438 -15.375 36.953125 -14.9375 C 36.128906 -14.5 35.71875 -13.679688 35.71875 -12.484375 Z M 35.71875 -12.484375 "/></g></g></g><g fill="#000000" fill-opacity="1"><g transform="translate(160.594303, 235.624985)"><g/></g></g><g fill="#000000" fill-opacity="1"><g transform="translate(185.223947, 235.624985)"><g><path d="M 36.203125 -47.875 C 36.203125 -45.84375 35.679688 -44.128906 34.640625 -42.734375 C 33.609375 -41.335938 32.109375 -40.421875 30.140625 -39.984375 C 28.160156 -39.710938 26.953125 -39.054688 26.515625 -38.015625 C 26.078125 -36.972656 25.859375 -35.742188 25.859375 -34.328125 C 25.859375 -32.566406 25.707031 -30.820312 25.40625 -29.09375 C 25.113281 -27.375 24.96875 -25.96875 24.96875 -24.875 C 24.96875 -23.945312 25.320312 -23.003906 26.03125 -22.046875 C 26.738281 -21.085938 27.4375 -20.222656 28.125 -19.453125 C 28.8125 -18.691406 29.15625 -18.035156 29.15625 -17.484375 C 29.15625 -16.554688 28.25 -15.679688 26.4375 -14.859375 C 24.90625 -14.148438 23.878906 -13.21875 23.359375 -12.0625 C 22.835938 -10.914062 22.523438 -9.632812 22.421875 -8.21875 C 22.304688 -5.695312 22.113281 -3.117188 21.84375 -0.484375 C 21.570312 2.140625 21.4375 4.789062 21.4375 7.46875 C 21.4375 8.726562 21.1875 10.066406 20.6875 11.484375 C 20.195312 12.910156 19.515625 14.128906 18.640625 15.140625 C 17.765625 16.160156 16.695312 16.671875 15.4375 16.671875 C 14.175781 16.671875 12.957031 16.34375 11.78125 15.6875 C 10.601562 15.03125 10.015625 14.070312 10.015625 12.8125 C 10.015625 12.257812 10.097656 11.710938 10.265625 11.171875 C 11.023438 8.753906 11.421875 6.242188 11.453125 3.640625 C 11.484375 1.046875 11.660156 -1.476562 11.984375 -3.9375 C 12.035156 -4.21875 12.078125 -4.503906 12.109375 -4.796875 C 12.140625 -5.097656 12.15625 -5.390625 12.15625 -5.671875 C 12.15625 -6.921875 11.835938 -7.832031 11.203125 -8.40625 C 10.578125 -8.988281 9.46875 -9.28125 7.875 -9.28125 C 6.507812 -9.382812 5.265625 -9.941406 4.140625 -10.953125 C 3.023438 -11.972656 2.46875 -12.972656 2.46875 -13.953125 C 2.46875 -14.390625 2.695312 -14.976562 3.15625 -15.71875 C 3.625 -16.457031 4.242188 -16.9375 5.015625 -17.15625 C 7.304688 -17.925781 9.09375 -18.96875 10.375 -20.28125 C 11.664062 -21.59375 12.613281 -23.082031 13.21875 -24.75 C 13.820312 -26.425781 14.21875 -28.207031 14.40625 -30.09375 C 14.601562 -31.976562 14.78125 -33.878906 14.9375 -35.796875 C 15.21875 -39.140625 15.476562 -42.476562 15.71875 -45.8125 C 15.96875 -49.15625 16.257812 -52.492188 16.59375 -55.828125 C 17.082031 -60.972656 19.242188 -63.546875 23.078125 -63.546875 C 25.585938 -63.546875 27.84375 -62.863281 29.84375 -61.5 C 31.84375 -60.132812 33.414062 -58.382812 34.5625 -56.25 C 35.71875 -54.113281 36.296875 -51.867188 36.296875 -49.515625 C 36.296875 -49.234375 36.296875 -48.957031 36.296875 -48.6875 C 36.296875 -48.414062 36.265625 -48.144531 36.203125 -47.875 Z M 36.203125 -47.875 "/></g></g></g><g fill="#000000" fill-opacity="1"><g transform="translate(217.406687, 235.624985)"><g><path d="M 16.5 -22.328125 C 18.195312 -22.328125 19.71875 -21.847656 21.0625 -20.890625 C 22.40625 -19.929688 23.484375 -18.6875 24.296875 -17.15625 C 25.117188 -15.625 25.53125 -14.007812 25.53125 -12.3125 C 25.476562 -10.394531 24.914062 -8.628906 23.84375 -7.015625 C 22.78125 -5.398438 21.398438 -4.097656 19.703125 -3.109375 C 18.003906 -2.128906 16.144531 -1.640625 14.125 -1.640625 C 11.0625 -1.640625 8.625 -2.472656 6.8125 -4.140625 C 5.007812 -5.816406 4.109375 -7.882812 4.109375 -10.34375 C 4.109375 -14.726562 5.132812 -17.820312 7.1875 -19.625 C 9.238281 -21.425781 12.34375 -22.328125 16.5 -22.328125 Z M 16.5 -22.328125 "/></g></g></g><g fill="#000000" fill-opacity="1"><g transform="translate(247.044359, 235.624985)"><g><path d="M 33.34375 7.546875 C 32.957031 12.148438 31.925781 16.394531 30.25 20.28125 C 28.582031 24.164062 26.050781 27.5625 22.65625 30.46875 C 21.945312 31.007812 21.195312 31.429688 20.40625 31.734375 C 19.613281 32.035156 18.914062 32.1875 18.3125 32.1875 C 17.164062 32.1875 16.054688 31.71875 14.984375 30.78125 C 13.921875 29.851562 13.390625 28.625 13.390625 27.09375 C 13.390625 26.332031 13.578125 25.660156 13.953125 25.078125 C 14.335938 24.503906 14.773438 23.945312 15.265625 23.40625 C 16.691406 21.925781 17.910156 20.078125 18.921875 17.859375 C 19.929688 15.640625 20.722656 13.394531 21.296875 11.125 C 21.878906 8.851562 22.171875 6.925781 22.171875 5.34375 C 22.171875 4.1875 22.085938 2.800781 21.921875 1.1875 C 21.753906 -0.425781 21.476562 -1.984375 21.09375 -3.484375 C 20.71875 -4.992188 20.226562 -6.253906 19.625 -7.265625 C 19.019531 -8.273438 18.28125 -8.78125 17.40625 -8.78125 C 16.863281 -8.78125 16.164062 -8.570312 15.3125 -8.15625 C 14.46875 -7.75 13.535156 -7.34375 12.515625 -6.9375 C 11.503906 -6.53125 10.476562 -6.328125 9.4375 -6.328125 C 8.394531 -6.328125 7.328125 -6.625 6.234375 -7.21875 C 5.140625 -7.820312 4.238281 -8.6875 3.53125 -9.8125 C 2.820312 -10.9375 2.46875 -12.265625 2.46875 -13.796875 C 2.46875 -15.054688 2.863281 -16.34375 3.65625 -17.65625 C 4.445312 -18.96875 5.484375 -20.070312 6.765625 -20.96875 C 8.054688 -21.875 9.414062 -22.328125 10.84375 -22.328125 C 11.28125 -22.328125 11.71875 -22.285156 12.15625 -22.203125 C 12.59375 -22.128906 13.003906 -22.09375 13.390625 -22.09375 C 14.640625 -22.09375 15.8125 -22.347656 16.90625 -22.859375 C 18.007812 -23.378906 19.109375 -24.160156 20.203125 -25.203125 C 20.859375 -25.804688 21.757812 -26.109375 22.90625 -26.109375 C 23.945312 -26.109375 24.972656 -25.863281 25.984375 -25.375 C 26.992188 -24.882812 27.84375 -24.210938 28.53125 -23.359375 C 29.21875 -22.515625 29.5625 -21.539062 29.5625 -20.4375 C 29.5625 -17.644531 29.859375 -14.9375 30.453125 -12.3125 C 31.054688 -9.6875 31.660156 -7.070312 32.265625 -4.46875 C 32.867188 -1.875 33.171875 0.789062 33.171875 3.53125 C 33.171875 4.238281 33.15625 4.9375 33.125 5.625 C 33.101562 6.3125 33.175781 6.953125 33.34375 7.546875 Z M 33.34375 7.546875 "/></g></g></g><g fill="#000000" fill-opacity="1"><g transform="translate(92.123898, 307.678301)"><g><path d="M 17 -29.390625 C 17 -26.222656 16.859375 -23.050781 16.578125 -19.875 C 16.304688 -16.695312 16.171875 -13.492188 16.171875 -10.265625 C 16.171875 -8.734375 16.304688 -7.210938 16.578125 -5.703125 C 16.859375 -4.203125 17 -2.710938 17 -1.234375 C 17 -0.242188 16.695312 0.753906 16.09375 1.765625 C 15.488281 2.773438 14.75 3.632812 13.875 4.34375 C 13 5.0625 12.125 5.421875 11.25 5.421875 C 10.425781 5.421875 9.546875 5.0625 8.609375 4.34375 C 7.679688 3.632812 6.863281 2.742188 6.15625 1.671875 C 5.445312 0.609375 5.007812 -0.492188 4.84375 -1.640625 C 4.351562 -6.078125 4.109375 -10.507812 4.109375 -14.9375 C 4.109375 -20.519531 4.269531 -26.269531 4.59375 -32.1875 C 4.925781 -38.101562 5.285156 -43.878906 5.671875 -49.515625 C 5.828125 -52.359375 6.300781 -54.351562 7.09375 -55.5 C 7.894531 -56.65625 9.222656 -57.234375 11.078125 -57.234375 C 13.109375 -57.234375 14.753906 -56.519531 16.015625 -55.09375 C 17.273438 -53.664062 17.90625 -51.804688 17.90625 -49.515625 C 17.90625 -46.503906 17.738281 -43.546875 17.40625 -40.640625 C 17.082031 -37.742188 16.921875 -34.84375 16.921875 -31.9375 C 16.921875 -31.550781 16.921875 -31.140625 16.921875 -30.703125 C 16.921875 -30.265625 16.945312 -29.828125 17 -29.390625 Z M 17 -29.390625 "/></g></g></g><g fill="#000000" fill-opacity="1"><g transform="translate(112.484401, 307.678301)"><g><path d="M 35.71875 -12.484375 C 36.15625 -11.765625 36.753906 -11.28125 37.515625 -11.03125 C 38.285156 -10.789062 39.132812 -10.644531 40.0625 -10.59375 C 41 -10.539062 41.890625 -10.429688 42.734375 -10.265625 C 43.585938 -10.097656 44.285156 -9.726562 44.828125 -9.15625 C 45.378906 -8.582031 45.65625 -7.664062 45.65625 -6.40625 C 45.65625 -4.757812 45.175781 -3.414062 44.21875 -2.375 C 43.257812 -1.34375 42.050781 -0.566406 40.59375 -0.046875 C 39.144531 0.472656 37.613281 0.828125 36 1.015625 C 34.382812 1.210938 32.921875 1.3125 31.609375 1.3125 C 29.585938 1.3125 27.617188 0.953125 25.703125 0.234375 C 23.785156 -0.472656 21.976562 -1.703125 20.28125 -3.453125 C 19.238281 -4.546875 18.222656 -5.351562 17.234375 -5.875 C 16.253906 -6.394531 15.191406 -6.65625 14.046875 -6.65625 C 13.222656 -6.65625 12.316406 -6.488281 11.328125 -6.15625 C 10.347656 -5.832031 9.390625 -5.671875 8.453125 -5.671875 C 7.253906 -5.671875 5.992188 -6.050781 4.671875 -6.8125 C 3.359375 -7.582031 2.25 -8.566406 1.34375 -9.765625 C 0.445312 -10.972656 0 -12.207031 0 -13.46875 C 0 -15.269531 0.640625 -16.828125 1.921875 -18.140625 C 3.210938 -19.453125 4.648438 -20.109375 6.234375 -20.109375 C 6.566406 -20.109375 6.910156 -20.09375 7.265625 -20.0625 C 7.617188 -20.039062 7.9375 -20.03125 8.21875 -20.03125 C 10.070312 -20.03125 11.519531 -20.535156 12.5625 -21.546875 C 13.601562 -22.566406 14.644531 -23.867188 15.6875 -25.453125 C 16.613281 -27.253906 17.9375 -28.8125 19.65625 -30.125 C 21.382812 -31.445312 23.316406 -32.460938 25.453125 -33.171875 C 27.585938 -33.878906 29.664062 -34.234375 31.6875 -34.234375 C 34.101562 -34.234375 35.992188 -33.585938 37.359375 -32.296875 C 38.722656 -31.015625 39.691406 -29.429688 40.265625 -27.546875 C 40.847656 -25.660156 41.140625 -23.84375 41.140625 -22.09375 C 41.140625 -21.15625 40.988281 -20.222656 40.6875 -19.296875 C 40.382812 -18.367188 39.820312 -17.4375 39 -16.5 C 38.457031 -15.894531 37.773438 -15.375 36.953125 -14.9375 C 36.128906 -14.5 35.71875 -13.679688 35.71875 -12.484375 Z M 35.71875 -12.484375 "/></g></g></g><g fill="#000000" fill-opacity="1"><g transform="translate(160.594303, 307.678301)"><g/></g></g><g fill="#000000" fill-opacity="1"><g transform="translate(185.223947, 307.678301)"><g><path d="M 36.203125 -47.875 C 36.203125 -45.84375 35.679688 -44.128906 34.640625 -42.734375 C 33.609375 -41.335938 32.109375 -40.421875 30.140625 -39.984375 C 28.160156 -39.710938 26.953125 -39.054688 26.515625 -38.015625 C 26.078125 -36.972656 25.859375 -35.742188 25.859375 -34.328125 C 25.859375 -32.566406 25.707031 -30.820312 25.40625 -29.09375 C 25.113281 -27.375 24.96875 -25.96875 24.96875 -24.875 C 24.96875 -23.945312 25.320312 -23.003906 26.03125 -22.046875 C 26.738281 -21.085938 27.4375 -20.222656 28.125 -19.453125 C 28.8125 -18.691406 29.15625 -18.035156 29.15625 -17.484375 C 29.15625 -16.554688 28.25 -15.679688 26.4375 -14.859375 C 24.90625 -14.148438 23.878906 -13.21875 23.359375 -12.0625 C 22.835938 -10.914062 22.523438 -9.632812 22.421875 -8.21875 C 22.304688 -5.695312 22.113281 -3.117188 21.84375 -0.484375 C 21.570312 2.140625 21.4375 4.789062 21.4375 7.46875 C 21.4375 8.726562 21.1875 10.066406 20.6875 11.484375 C 20.195312 12.910156 19.515625 14.128906 18.640625 15.140625 C 17.765625 16.160156 16.695312 16.671875 15.4375 16.671875 C 14.175781 16.671875 12.957031 16.34375 11.78125 15.6875 C 10.601562 15.03125 10.015625 14.070312 10.015625 12.8125 C 10.015625 12.257812 10.097656 11.710938 10.265625 11.171875 C 11.023438 8.753906 11.421875 6.242188 11.453125 3.640625 C 11.484375 1.046875 11.660156 -1.476562 11.984375 -3.9375 C 12.035156 -4.21875 12.078125 -4.503906 12.109375 -4.796875 C 12.140625 -5.097656 12.15625 -5.390625 12.15625 -5.671875 C 12.15625 -6.921875 11.835938 -7.832031 11.203125 -8.40625 C 10.578125 -8.988281 9.46875 -9.28125 7.875 -9.28125 C 6.507812 -9.382812 5.265625 -9.941406 4.140625 -10.953125 C 3.023438 -11.972656 2.46875 -12.972656 2.46875 -13.953125 C 2.46875 -14.390625 2.695312 -14.976562 3.15625 -15.71875 C 3.625 -16.457031 4.242188 -16.9375 5.015625 -17.15625 C 7.304688 -17.925781 9.09375 -18.96875 10.375 -20.28125 C 11.664062 -21.59375 12.613281 -23.082031 13.21875 -24.75 C 13.820312 -26.425781 14.21875 -28.207031 14.40625 -30.09375 C 14.601562 -31.976562 14.78125 -33.878906 14.9375 -35.796875 C 15.21875 -39.140625 15.476562 -42.476562 15.71875 -45.8125 C 15.96875 -49.15625 16.257812 -52.492188 16.59375 -55.828125 C 17.082031 -60.972656 19.242188 -63.546875 23.078125 -63.546875 C 25.585938 -63.546875 27.84375 -62.863281 29.84375 -61.5 C 31.84375 -60.132812 33.414062 -58.382812 34.5625 -56.25 C 35.71875 -54.113281 36.296875 -51.867188 36.296875 -49.515625 C 36.296875 -49.234375 36.296875 -48.957031 36.296875 -48.6875 C 36.296875 -48.414062 36.265625 -48.144531 36.203125 -47.875 Z M 36.203125 -47.875 "/></g></g></g><g fill="#000000" fill-opacity="1"><g transform="translate(217.406687, 307.678301)"><g><path d="M 16.5 -22.328125 C 18.195312 -22.328125 19.71875 -21.847656 21.0625 -20.890625 C 22.40625 -19.929688 23.484375 -18.6875 24.296875 -17.15625 C 25.117188 -15.625 25.53125 -14.007812 25.53125 -12.3125 C 25.476562 -10.394531 24.914062 -8.628906 23.84375 -7.015625 C 22.78125 -5.398438 21.398438 -4.097656 19.703125 -3.109375 C 18.003906 -2.128906 16.144531 -1.640625 14.125 -1.640625 C 11.0625 -1.640625 8.625 -2.472656 6.8125 -4.140625 C 5.007812 -5.816406 4.109375 -7.882812 4.109375 -10.34375 C 4.109375 -14.726562 5.132812 -17.820312 7.1875 -19.625 C 9.238281 -21.425781 12.34375 -22.328125 16.5 -22.328125 Z M 16.5 -22.328125 "/></g></g></g><g fill="#000000" fill-opacity="1"><g transform="translate(247.044359, 307.678301)"><g><path d="M 33.34375 7.546875 C 32.957031 12.148438 31.925781 16.394531 30.25 20.28125 C 28.582031 24.164062 26.050781 27.5625 22.65625 30.46875 C 21.945312 31.007812 21.195312 31.429688 20.40625 31.734375 C 19.613281 32.035156 18.914062 32.1875 18.3125 32.1875 C 17.164062 32.1875 16.054688 31.71875 14.984375 30.78125 C 13.921875 29.851562 13.390625 28.625 13.390625 27.09375 C 13.390625 26.332031 13.578125 25.660156 13.953125 25.078125 C 14.335938 24.503906 14.773438 23.945312 15.265625 23.40625 C 16.691406 21.925781 17.910156 20.078125 18.921875 17.859375 C 19.929688 15.640625 20.722656 13.394531 21.296875 11.125 C 21.878906 8.851562 22.171875 6.925781 22.171875 5.34375 C 22.171875 4.1875 22.085938 2.800781 21.921875 1.1875 C 21.753906 -0.425781 21.476562 -1.984375 21.09375 -3.484375 C 20.71875 -4.992188 20.226562 -6.253906 19.625 -7.265625 C 19.019531 -8.273438 18.28125 -8.78125 17.40625 -8.78125 C 16.863281 -8.78125 16.164062 -8.570312 15.3125 -8.15625 C 14.46875 -7.75 13.535156 -7.34375 12.515625 -6.9375 C 11.503906 -6.53125 10.476562 -6.328125 9.4375 -6.328125 C 8.394531 -6.328125 7.328125 -6.625 6.234375 -7.21875 C 5.140625 -7.820312 4.238281 -8.6875 3.53125 -9.8125 C 2.820312 -10.9375 2.46875 -12.265625 2.46875 -13.796875 C 2.46875 -15.054688 2.863281 -16.34375 3.65625 -17.65625 C 4.445312 -18.96875 5.484375 -20.070312 6.765625 -20.96875 C 8.054688 -21.875 9.414062 -22.328125 10.84375 -22.328125 C 11.28125 -22.328125 11.71875 -22.285156 12.15625 -22.203125 C 12.59375 -22.128906 13.003906 -22.09375 13.390625 -22.09375 C 14.640625 -22.09375 15.8125 -22.347656 16.90625 -22.859375 C 18.007812 -23.378906 19.109375 -24.160156 20.203125 -25.203125 C 20.859375 -25.804688 21.757812 -26.109375 22.90625 -26.109375 C 23.945312 -26.109375 24.972656 -25.863281 25.984375 -25.375 C 26.992188 -24.882812 27.84375 -24.210938 28.53125 -23.359375 C 29.21875 -22.515625 29.5625 -21.539062 29.5625 -20.4375 C 29.5625 -17.644531 29.859375 -14.9375 30.453125 -12.3125 C 31.054688 -9.6875 31.660156 -7.070312 32.265625 -4.46875 C 32.867188 -1.875 33.171875 0.789062 33.171875 3.53125 C 33.171875 4.238281 33.15625 4.9375 33.125 5.625 C 33.101562 6.3125 33.175781 6.953125 33.34375 7.546875 Z M 33.34375 7.546875 "/></g></g></g><g fill="#000000" fill-opacity="1"><g transform="translate(92.123898, 379.886304)"><g><path d="M 17 -29.390625 C 17 -26.222656 16.859375 -23.050781 16.578125 -19.875 C 16.304688 -16.695312 16.171875 -13.492188 16.171875 -10.265625 C 16.171875 -8.734375 16.304688 -7.210938 16.578125 -5.703125 C 16.859375 -4.203125 17 -2.710938 17 -1.234375 C 17 -0.242188 16.695312 0.753906 16.09375 1.765625 C 15.488281 2.773438 14.75 3.632812 13.875 4.34375 C 13 5.0625 12.125 5.421875 11.25 5.421875 C 10.425781 5.421875 9.546875 5.0625 8.609375 4.34375 C 7.679688 3.632812 6.863281 2.742188 6.15625 1.671875 C 5.445312 0.609375 5.007812 -0.492188 4.84375 -1.640625 C 4.351562 -6.078125 4.109375 -10.507812 4.109375 -14.9375 C 4.109375 -20.519531 4.269531 -26.269531 4.59375 -32.1875 C 4.925781 -38.101562 5.285156 -43.878906 5.671875 -49.515625 C 5.828125 -52.359375 6.300781 -54.351562 7.09375 -55.5 C 7.894531 -56.65625 9.222656 -57.234375 11.078125 -57.234375 C 13.109375 -57.234375 14.753906 -56.519531 16.015625 -55.09375 C 17.273438 -53.664062 17.90625 -51.804688 17.90625 -49.515625 C 17.90625 -46.503906 17.738281 -43.546875 17.40625 -40.640625 C 17.082031 -37.742188 16.921875 -34.84375 16.921875 -31.9375 C 16.921875 -31.550781 16.921875 -31.140625 16.921875 -30.703125 C 16.921875 -30.265625 16.945312 -29.828125 17 -29.390625 Z M 17 -29.390625 "/></g></g></g><g fill="#000000" fill-opacity="1"><g transform="translate(112.484401, 379.886304)"><g><path d="M 35.71875 -12.484375 C 36.15625 -11.765625 36.753906 -11.28125 37.515625 -11.03125 C 38.285156 -10.789062 39.132812 -10.644531 40.0625 -10.59375 C 41 -10.539062 41.890625 -10.429688 42.734375 -10.265625 C 43.585938 -10.097656 44.285156 -9.726562 44.828125 -9.15625 C 45.378906 -8.582031 45.65625 -7.664062 45.65625 -6.40625 C 45.65625 -4.757812 45.175781 -3.414062 44.21875 -2.375 C 43.257812 -1.34375 42.050781 -0.566406 40.59375 -0.046875 C 39.144531 0.472656 37.613281 0.828125 36 1.015625 C 34.382812 1.210938 32.921875 1.3125 31.609375 1.3125 C 29.585938 1.3125 27.617188 0.953125 25.703125 0.234375 C 23.785156 -0.472656 21.976562 -1.703125 20.28125 -3.453125 C 19.238281 -4.546875 18.222656 -5.351562 17.234375 -5.875 C 16.253906 -6.394531 15.191406 -6.65625 14.046875 -6.65625 C 13.222656 -6.65625 12.316406 -6.488281 11.328125 -6.15625 C 10.347656 -5.832031 9.390625 -5.671875 8.453125 -5.671875 C 7.253906 -5.671875 5.992188 -6.050781 4.671875 -6.8125 C 3.359375 -7.582031 2.25 -8.566406 1.34375 -9.765625 C 0.445312 -10.972656 0 -12.207031 0 -13.46875 C 0 -15.269531 0.640625 -16.828125 1.921875 -18.140625 C 3.210938 -19.453125 4.648438 -20.109375 6.234375 -20.109375 C 6.566406 -20.109375 6.910156 -20.09375 7.265625 -20.0625 C 7.617188 -20.039062 7.9375 -20.03125 8.21875 -20.03125 C 10.070312 -20.03125 11.519531 -20.535156 12.5625 -21.546875 C 13.601562 -22.566406 14.644531 -23.867188 15.6875 -25.453125 C 16.613281 -27.253906 17.9375 -28.8125 19.65625 -30.125 C 21.382812 -31.445312 23.316406 -32.460938 25.453125 -33.171875 C 27.585938 -33.878906 29.664062 -34.234375 31.6875 -34.234375 C 34.101562 -34.234375 35.992188 -33.585938 37.359375 -32.296875 C 38.722656 -31.015625 39.691406 -29.429688 40.265625 -27.546875 C 40.847656 -25.660156 41.140625 -23.84375 41.140625 -22.09375 C 41.140625 -21.15625 40.988281 -20.222656 40.6875 -19.296875 C 40.382812 -18.367188 39.820312 -17.4375 39 -16.5 C 38.457031 -15.894531 37.773438 -15.375 36.953125 -14.9375 C 36.128906 -14.5 35.71875 -13.679688 35.71875 -12.484375 Z M 35.71875 -12.484375 "/></g></g></g><g fill="#000000" fill-opacity="1"><g transform="translate(185.223947, 379.886304)"><g><path d="M 36.203125 -47.875 C 36.203125 -45.84375 35.679688 -44.128906 34.640625 -42.734375 C 33.609375 -41.335938 32.109375 -40.421875 30.140625 -39.984375 C 28.160156 -39.710938 26.953125 -39.054688 26.515625 -38.015625 C 26.078125 -36.972656 25.859375 -35.742188 25.859375 -34.328125 C 25.859375 -32.566406 25.707031 -30.820312 25.40625 -29.09375 C 25.113281 -27.375 24.96875 -25.96875 24.96875 -24.875 C 24.96875 -23.945312 25.320312 -23.003906 26.03125 -22.046875 C 26.738281 -21.085938 27.4375 -20.222656 28.125 -19.453125 C 28.8125 -18.691406 29.15625 -18.035156 29.15625 -17.484375 C 29.15625 -16.554688 28.25 -15.679688 26.4375 -14.859375 C 24.90625 -14.148438 23.878906 -13.21875 23.359375 -12.0625 C 22.835938 -10.914062 22.523438 -9.632812 22.421875 -8.21875 C 22.304688 -5.695312 22.113281 -3.117188 21.84375 -0.484375 C 21.570312 2.140625 21.4375 4.789062 21.4375 7.46875 C 21.4375 8.726562 21.1875 10.066406 20.6875 11.484375 C 20.195312 12.910156 19.515625 14.128906 18.640625 15.140625 C 17.765625 16.160156 16.695312 16.671875 15.4375 16.671875 C 14.175781 16.671875 12.957031 16.34375 11.78125 15.6875 C 10.601562 15.03125 10.015625 14.070312 10.015625 12.8125 C 10.015625 12.257812 10.097656 11.710938 10.265625 11.171875 C 11.023438 8.753906 11.421875 6.242188 11.453125 3.640625 C 11.484375 1.046875 11.660156 -1.476562 11.984375 -3.9375 C 12.035156 -4.21875 12.078125 -4.503906 12.109375 -4.796875 C 12.140625 -5.097656 12.15625 -5.390625 12.15625 -5.671875 C 12.15625 -6.921875 11.835938 -7.832031 11.203125 -8.40625 C 10.578125 -8.988281 9.46875 -9.28125 7.875 -9.28125 C 6.507812 -9.382812 5.265625 -9.941406 4.140625 -10.953125 C 3.023438 -11.972656 2.46875 -12.972656 2.46875 -13.953125 C 2.46875 -14.390625 2.695312 -14.976562 3.15625 -15.71875 C 3.625 -16.457031 4.242188 -16.9375 5.015625 -17.15625 C 7.304688 -17.925781 9.09375 -18.96875 10.375 -20.28125 C 11.664062 -21.59375 12.613281 -23.082031 13.21875 -24.75 C 13.820312 -26.425781 14.21875 -28.207031 14.40625 -30.09375 C 14.601562 -31.976562 14.78125 -33.878906 14.9375 -35.796875 C 15.21875 -39.140625 15.476562 -42.476562 15.71875 -45.8125 C 15.96875 -49.15625 16.257812 -52.492188 16.59375 -55.828125 C 17.082031 -60.972656 19.242188 -63.546875 23.078125 -63.546875 C 25.585938 -63.546875 27.84375 -62.863281 29.84375 -61.5 C 31.84375 -60.132812 33.414062 -58.382812 34.5625 -56.25 C 35.71875 -54.113281 36.296875 -51.867188 36.296875 -49.515625 C 36.296875 -49.234375 36.296875 -48.957031 36.296875 -48.6875 C 36.296875 -48.414062 36.265625 -48.144531 36.203125 -47.875 Z M 36.203125 -47.875 "/></g></g></g><g fill="#000000" fill-opacity="1"><g transform="translate(217.406687, 379.886304)"><g><path d="M 16.5 -22.328125 C 18.195312 -22.328125 19.71875 -21.847656 21.0625 -20.890625 C 22.40625 -19.929688 23.484375 -18.6875 24.296875 -17.15625 C 25.117188 -15.625 25.53125 -14.007812 25.53125 -12.3125 C 25.476562 -10.394531 24.914062 -8.628906 23.84375 -7.015625 C 22.78125 -5.398438 21.398438 -4.097656 19.703125 -3.109375 C 18.003906 -2.128906 16.144531 -1.640625 14.125 -1.640625 C 11.0625 -1.640625 8.625 -2.472656 6.8125 -4.140625 C 5.007812 -5.816406 4.109375 -7.882812 4.109375 -10.34375 C 4.109375 -14.726562 5.132812 -17.820312 7.1875 -19.625 C 9.238281 -21.425781 12.34375 -22.328125 16.5 -22.328125 Z M 16.5 -22.328125 "/></g></g></g><g fill="#000000" fill-opacity="1"><g transform="translate(247.044359, 379.886304)"><g><path d="M 33.34375 7.546875 C 32.957031 12.148438 31.925781 16.394531 30.25 20.28125 C 28.582031 24.164062 26.050781 27.5625 22.65625 30.46875 C 21.945312 31.007812 21.195312 31.429688 20.40625 31.734375 C 19.613281 32.035156 18.914062 32.1875 18.3125 32.1875 C 17.164062 32.1875 16.054688 31.71875 14.984375 30.78125 C 13.921875 29.851562 13.390625 28.625 13.390625 27.09375 C 13.390625 26.332031 13.578125 25.660156 13.953125 25.078125 C 14.335938 24.503906 14.773438 23.945312 15.265625 23.40625 C 16.691406 21.925781 17.910156 20.078125 18.921875 17.859375 C 19.929688 15.640625 20.722656 13.394531 21.296875 11.125 C 21.878906 8.851562 22.171875 6.925781 22.171875 5.34375 C 22.171875 4.1875 22.085938 2.800781 21.921875 1.1875 C 21.753906 -0.425781 21.476562 -1.984375 21.09375 -3.484375 C 20.71875 -4.992188 20.226562 -6.253906 19.625 -7.265625 C 19.019531 -8.273438 18.28125 -8.78125 17.40625 -8.78125 C 16.863281 -8.78125 16.164062 -8.570312 15.3125 -8.15625 C 14.46875 -7.75 13.535156 -7.34375 12.515625 -6.9375 C 11.503906 -6.53125 10.476562 -6.328125 9.4375 -6.328125 C 8.394531 -6.328125 7.328125 -6.625 6.234375 -7.21875 C 5.140625 -7.820312 4.238281 -8.6875 3.53125 -9.8125 C 2.820312 -10.9375 2.46875 -12.265625 2.46875 -13.796875 C 2.46875 -15.054688 2.863281 -16.34375 3.65625 -17.65625 C 4.445312 -18.96875 5.484375 -20.070312 6.765625 -20.96875 C 8.054688 -21.875 9.414062 -22.328125 10.84375 -22.328125 C 11.28125 -22.328125 11.71875 -22.285156 12.15625 -22.203125 C 12.59375 -22.128906 13.003906 -22.09375 13.390625 -22.09375 C 14.640625 -22.09375 15.8125 -22.347656 16.90625 -22.859375 C 18.007812 -23.378906 19.109375 -24.160156 20.203125 -25.203125 C 20.859375 -25.804688 21.757812 -26.109375 22.90625 -26.109375 C 23.945312 -26.109375 24.972656 -25.863281 25.984375 -25.375 C 26.992188 -24.882812 27.84375 -24.210938 28.53125 -23.359375 C 29.21875 -22.515625 29.5625 -21.539062 29.5625 -20.4375 C 29.5625 -17.644531 29.859375 -14.9375 30.453125 -12.3125 C 31.054688 -9.6875 31.660156 -7.070312 32.265625 -4.46875 C 32.867188 -1.875 33.171875 0.789062 33.171875 3.53125 C 33.171875 4.238281 33.15625 4.9375 33.125 5.625 C 33.101562 6.3125 33.175781 6.953125 33.34375 7.546875 Z M 33.34375 7.546875 "/></g></g></g><g fill="#000000" fill-opacity="1"><g transform="translate(92.123898, 23.425742)"><g><path d="M 17 -29.390625 C 17 -26.222656 16.859375 -23.050781 16.578125 -19.875 C 16.304688 -16.695312 16.171875 -13.492188 16.171875 -10.265625 C 16.171875 -8.734375 16.304688 -7.210938 16.578125 -5.703125 C 16.859375 -4.203125 17 -2.710938 17 -1.234375 C 17 -0.242188 16.695312 0.753906 16.09375 1.765625 C 15.488281 2.773438 14.75 3.632812 13.875 4.34375 C 13 5.0625 12.125 5.421875 11.25 5.421875 C 10.425781 5.421875 9.546875 5.0625 8.609375 4.34375 C 7.679688 3.632812 6.863281 2.742188 6.15625 1.671875 C 5.445312 0.609375 5.007812 -0.492188 4.84375 -1.640625 C 4.351562 -6.078125 4.109375 -10.507812 4.109375 -14.9375 C 4.109375 -20.519531 4.269531 -26.269531 4.59375 -32.1875 C 4.925781 -38.101562 5.285156 -43.878906 5.671875 -49.515625 C 5.828125 -52.359375 6.300781 -54.351562 7.09375 -55.5 C 7.894531 -56.65625 9.222656 -57.234375 11.078125 -57.234375 C 13.109375 -57.234375 14.753906 -56.519531 16.015625 -55.09375 C 17.273438 -53.664062 17.90625 -51.804688 17.90625 -49.515625 C 17.90625 -46.503906 17.738281 -43.546875 17.40625 -40.640625 C 17.082031 -37.742188 16.921875 -34.84375 16.921875 -31.9375 C 16.921875 -31.550781 16.921875 -31.140625 16.921875 -30.703125 C 16.921875 -30.265625 16.945312 -29.828125 17 -29.390625 Z M 17 -29.390625 "/></g></g></g><g fill="#000000" fill-opacity="1"><g transform="translate(112.484401, 23.425742)"><g><path d="M 35.71875 -12.484375 C 36.15625 -11.765625 36.753906 -11.28125 37.515625 -11.03125 C 38.285156 -10.789062 39.132812 -10.644531 40.0625 -10.59375 C 41 -10.539062 41.890625 -10.429688 42.734375 -10.265625 C 43.585938 -10.097656 44.285156 -9.726562 44.828125 -9.15625 C 45.378906 -8.582031 45.65625 -7.664062 45.65625 -6.40625 C 45.65625 -4.757812 45.175781 -3.414062 44.21875 -2.375 C 43.257812 -1.34375 42.050781 -0.566406 40.59375 -0.046875 C 39.144531 0.472656 37.613281 0.828125 36 1.015625 C 34.382812 1.210938 32.921875 1.3125 31.609375 1.3125 C 29.585938 1.3125 27.617188 0.953125 25.703125 0.234375 C 23.785156 -0.472656 21.976562 -1.703125 20.28125 -3.453125 C 19.238281 -4.546875 18.222656 -5.351562 17.234375 -5.875 C 16.253906 -6.394531 15.191406 -6.65625 14.046875 -6.65625 C 13.222656 -6.65625 12.316406 -6.488281 11.328125 -6.15625 C 10.347656 -5.832031 9.390625 -5.671875 8.453125 -5.671875 C 7.253906 -5.671875 5.992188 -6.050781 4.671875 -6.8125 C 3.359375 -7.582031 2.25 -8.566406 1.34375 -9.765625 C 0.445312 -10.972656 0 -12.207031 0 -13.46875 C 0 -15.269531 0.640625 -16.828125 1.921875 -18.140625 C 3.210938 -19.453125 4.648438 -20.109375 6.234375 -20.109375 C 6.566406 -20.109375 6.910156 -20.09375 7.265625 -20.0625 C 7.617188 -20.039062 7.9375 -20.03125 8.21875 -20.03125 C 10.070312 -20.03125 11.519531 -20.535156 12.5625 -21.546875 C 13.601562 -22.566406 14.644531 -23.867188 15.6875 -25.453125 C 16.613281 -27.253906 17.9375 -28.8125 19.65625 -30.125 C 21.382812 -31.445312 23.316406 -32.460938 25.453125 -33.171875 C 27.585938 -33.878906 29.664062 -34.234375 31.6875 -34.234375 C 34.101562 -34.234375 35.992188 -33.585938 37.359375 -32.296875 C 38.722656 -31.015625 39.691406 -29.429688 40.265625 -27.546875 C 40.847656 -25.660156 41.140625 -23.84375 41.140625 -22.09375 C 41.140625 -21.15625 40.988281 -20.222656 40.6875 -19.296875 C 40.382812 -18.367188 39.820312 -17.4375 39 -16.5 C 38.457031 -15.894531 37.773438 -15.375 36.953125 -14.9375 C 36.128906 -14.5 35.71875 -13.679688 35.71875 -12.484375 Z M 35.71875 -12.484375 "/></g></g></g><g fill="#000000" fill-opacity="1"><g transform="translate(160.594303, 23.425742)"><g/></g></g><g fill="#000000" fill-opacity="1"><g transform="translate(185.223947, 23.425742)"><g><path d="M 36.203125 -47.875 C 36.203125 -45.84375 35.679688 -44.128906 34.640625 -42.734375 C 33.609375 -41.335938 32.109375 -40.421875 30.140625 -39.984375 C 28.160156 -39.710938 26.953125 -39.054688 26.515625 -38.015625 C 26.078125 -36.972656 25.859375 -35.742188 25.859375 -34.328125 C 25.859375 -32.566406 25.707031 -30.820312 25.40625 -29.09375 C 25.113281 -27.375 24.96875 -25.96875 24.96875 -24.875 C 24.96875 -23.945312 25.320312 -23.003906 26.03125 -22.046875 C 26.738281 -21.085938 27.4375 -20.222656 28.125 -19.453125 C 28.8125 -18.691406 29.15625 -18.035156 29.15625 -17.484375 C 29.15625 -16.554688 28.25 -15.679688 26.4375 -14.859375 C 24.90625 -14.148438 23.878906 -13.21875 23.359375 -12.0625 C 22.835938 -10.914062 22.523438 -9.632812 22.421875 -8.21875 C 22.304688 -5.695312 22.113281 -3.117188 21.84375 -0.484375 C 21.570312 2.140625 21.4375 4.789062 21.4375 7.46875 C 21.4375 8.726562 21.1875 10.066406 20.6875 11.484375 C 20.195312 12.910156 19.515625 14.128906 18.640625 15.140625 C 17.765625 16.160156 16.695312 16.671875 15.4375 16.671875 C 14.175781 16.671875 12.957031 16.34375 11.78125 15.6875 C 10.601562 15.03125 10.015625 14.070312 10.015625 12.8125 C 10.015625 12.257812 10.097656 11.710938 10.265625 11.171875 C 11.023438 8.753906 11.421875 6.242188 11.453125 3.640625 C 11.484375 1.046875 11.660156 -1.476562 11.984375 -3.9375 C 12.035156 -4.21875 12.078125 -4.503906 12.109375 -4.796875 C 12.140625 -5.097656 12.15625 -5.390625 12.15625 -5.671875 C 12.15625 -6.921875 11.835938 -7.832031 11.203125 -8.40625 C 10.578125 -8.988281 9.46875 -9.28125 7.875 -9.28125 C 6.507812 -9.382812 5.265625 -9.941406 4.140625 -10.953125 C 3.023438 -11.972656 2.46875 -12.972656 2.46875 -13.953125 C 2.46875 -14.390625 2.695312 -14.976562 3.15625 -15.71875 C 3.625 -16.457031 4.242188 -16.9375 5.015625 -17.15625 C 7.304688 -17.925781 9.09375 -18.96875 10.375 -20.28125 C 11.664062 -21.59375 12.613281 -23.082031 13.21875 -24.75 C 13.820312 -26.425781 14.21875 -28.207031 14.40625 -30.09375 C 14.601562 -31.976562 14.78125 -33.878906 14.9375 -35.796875 C 15.21875 -39.140625 15.476562 -42.476562 15.71875 -45.8125 C 15.96875 -49.15625 16.257812 -52.492188 16.59375 -55.828125 C 17.082031 -60.972656 19.242188 -63.546875 23.078125 -63.546875 C 25.585938 -63.546875 27.84375 -62.863281 29.84375 -61.5 C 31.84375 -60.132812 33.414062 -58.382812 34.5625 -56.25 C 35.71875 -54.113281 36.296875 -51.867188 36.296875 -49.515625 C 36.296875 -49.234375 36.296875 -48.957031 36.296875 -48.6875 C 36.296875 -48.414062 36.265625 -48.144531 36.203125 -47.875 Z M 36.203125 -47.875 "/></g></g></g><g fill="#000000" fill-opacity="1"><g transform="translate(217.406687, 23.425742)"><g><path d="M 16.5 -22.328125 C 18.195312 -22.328125 19.71875 -21.847656 21.0625 -20.890625 C 22.40625 -19.929688 23.484375 -18.6875 24.296875 -17.15625 C 25.117188 -15.625 25.53125 -14.007812 25.53125 -12.3125 C 25.476562 -10.394531 24.914062 -8.628906 23.84375 -7.015625 C 22.78125 -5.398438 21.398438 -4.097656 19.703125 -3.109375 C 18.003906 -2.128906 16.144531 -1.640625 14.125 -1.640625 C 11.0625 -1.640625 8.625 -2.472656 6.8125 -4.140625 C 5.007812 -5.816406 4.109375 -7.882812 4.109375 -10.34375 C 4.109375 -14.726562 5.132812 -17.820312 7.1875 -19.625 C 9.238281 -21.425781 12.34375 -22.328125 16.5 -22.328125 Z M 16.5 -22.328125 "/></g></g></g><g fill="#000000" fill-opacity="1"><g transform="translate(247.044359, 23.425742)"><g><path d="M 33.34375 7.546875 C 32.957031 12.148438 31.925781 16.394531 30.25 20.28125 C 28.582031 24.164062 26.050781 27.5625 22.65625 30.46875 C 21.945312 31.007812 21.195312 31.429688 20.40625 31.734375 C 19.613281 32.035156 18.914062 32.1875 18.3125 32.1875 C 17.164062 32.1875 16.054688 31.71875 14.984375 30.78125 C 13.921875 29.851562 13.390625 28.625 13.390625 27.09375 C 13.390625 26.332031 13.578125 25.660156 13.953125 25.078125 C 14.335938 24.503906 14.773438 23.945312 15.265625 23.40625 C 16.691406 21.925781 17.910156 20.078125 18.921875 17.859375 C 19.929688 15.640625 20.722656 13.394531 21.296875 11.125 C 21.878906 8.851562 22.171875 6.925781 22.171875 5.34375 C 22.171875 4.1875 22.085938 2.800781 21.921875 1.1875 C 21.753906 -0.425781 21.476562 -1.984375 21.09375 -3.484375 C 20.71875 -4.992188 20.226562 -6.253906 19.625 -7.265625 C 19.019531 -8.273438 18.28125 -8.78125 17.40625 -8.78125 C 16.863281 -8.78125 16.164062 -8.570312 15.3125 -8.15625 C 14.46875 -7.75 13.535156 -7.34375 12.515625 -6.9375 C 11.503906 -6.53125 10.476562 -6.328125 9.4375 -6.328125 C 8.394531 -6.328125 7.328125 -6.625 6.234375 -7.21875 C 5.140625 -7.820312 4.238281 -8.6875 3.53125 -9.8125 C 2.820312 -10.9375 2.46875 -12.265625 2.46875 -13.796875 C 2.46875 -15.054688 2.863281 -16.34375 3.65625 -17.65625 C 4.445312 -18.96875 5.484375 -20.070312 6.765625 -20.96875 C 8.054688 -21.875 9.414062 -22.328125 10.84375 -22.328125 C 11.28125 -22.328125 11.71875 -22.285156 12.15625 -22.203125 C 12.59375 -22.128906 13.003906 -22.09375 13.390625 -22.09375 C 14.640625 -22.09375 15.8125 -22.347656 16.90625 -22.859375 C 18.007812 -23.378906 19.109375 -24.160156 20.203125 -25.203125 C 20.859375 -25.804688 21.757812 -26.109375 22.90625 -26.109375 C 23.945312 -26.109375 24.972656 -25.863281 25.984375 -25.375 C 26.992188 -24.882812 27.84375 -24.210938 28.53125 -23.359375 C 29.21875 -22.515625 29.5625 -21.539062 29.5625 -20.4375 C 29.5625 -17.644531 29.859375 -14.9375 30.453125 -12.3125 C 31.054688 -9.6875 31.660156 -7.070312 32.265625 -4.46875 C 32.867188 -1.875 33.171875 0.789062 33.171875 3.53125 C 33.171875 4.238281 33.15625 4.9375 33.125 5.625 C 33.101562 6.3125 33.175781 6.953125 33.34375 7.546875 Z M 33.34375 7.546875 "/></g></g></g><g fill="#000000" fill-opacity="1"><g transform="translate(92.123898, 95.479057)"><g><path d="M 17 -29.390625 C 17 -26.222656 16.859375 -23.050781 16.578125 -19.875 C 16.304688 -16.695312 16.171875 -13.492188 16.171875 -10.265625 C 16.171875 -8.734375 16.304688 -7.210938 16.578125 -5.703125 C 16.859375 -4.203125 17 -2.710938 17 -1.234375 C 17 -0.242188 16.695312 0.753906 16.09375 1.765625 C 15.488281 2.773438 14.75 3.632812 13.875 4.34375 C 13 5.0625 12.125 5.421875 11.25 5.421875 C 10.425781 5.421875 9.546875 5.0625 8.609375 4.34375 C 7.679688 3.632812 6.863281 2.742188 6.15625 1.671875 C 5.445312 0.609375 5.007812 -0.492188 4.84375 -1.640625 C 4.351562 -6.078125 4.109375 -10.507812 4.109375 -14.9375 C 4.109375 -20.519531 4.269531 -26.269531 4.59375 -32.1875 C 4.925781 -38.101562 5.285156 -43.878906 5.671875 -49.515625 C 5.828125 -52.359375 6.300781 -54.351562 7.09375 -55.5 C 7.894531 -56.65625 9.222656 -57.234375 11.078125 -57.234375 C 13.109375 -57.234375 14.753906 -56.519531 16.015625 -55.09375 C 17.273438 -53.664062 17.90625 -51.804688 17.90625 -49.515625 C 17.90625 -46.503906 17.738281 -43.546875 17.40625 -40.640625 C 17.082031 -37.742188 16.921875 -34.84375 16.921875 -31.9375 C 16.921875 -31.550781 16.921875 -31.140625 16.921875 -30.703125 C 16.921875 -30.265625 16.945312 -29.828125 17 -29.390625 Z M 17 -29.390625 "/></g></g></g><g fill="#000000" fill-opacity="1"><g transform="translate(112.484401, 95.479057)"><g><path d="M 35.71875 -12.484375 C 36.15625 -11.765625 36.753906 -11.28125 37.515625 -11.03125 C 38.285156 -10.789062 39.132812 -10.644531 40.0625 -10.59375 C 41 -10.539062 41.890625 -10.429688 42.734375 -10.265625 C 43.585938 -10.097656 44.285156 -9.726562 44.828125 -9.15625 C 45.378906 -8.582031 45.65625 -7.664062 45.65625 -6.40625 C 45.65625 -4.757812 45.175781 -3.414062 44.21875 -2.375 C 43.257812 -1.34375 42.050781 -0.566406 40.59375 -0.046875 C 39.144531 0.472656 37.613281 0.828125 36 1.015625 C 34.382812 1.210938 32.921875 1.3125 31.609375 1.3125 C 29.585938 1.3125 27.617188 0.953125 25.703125 0.234375 C 23.785156 -0.472656 21.976562 -1.703125 20.28125 -3.453125 C 19.238281 -4.546875 18.222656 -5.351562 17.234375 -5.875 C 16.253906 -6.394531 15.191406 -6.65625 14.046875 -6.65625 C 13.222656 -6.65625 12.316406 -6.488281 11.328125 -6.15625 C 10.347656 -5.832031 9.390625 -5.671875 8.453125 -5.671875 C 7.253906 -5.671875 5.992188 -6.050781 4.671875 -6.8125 C 3.359375 -7.582031 2.25 -8.566406 1.34375 -9.765625 C 0.445312 -10.972656 0 -12.207031 0 -13.46875 C 0 -15.269531 0.640625 -16.828125 1.921875 -18.140625 C 3.210938 -19.453125 4.648438 -20.109375 6.234375 -20.109375 C 6.566406 -20.109375 6.910156 -20.09375 7.265625 -20.0625 C 7.617188 -20.039062 7.9375 -20.03125 8.21875 -20.03125 C 10.070312 -20.03125 11.519531 -20.535156 12.5625 -21.546875 C 13.601562 -22.566406 14.644531 -23.867188 15.6875 -25.453125 C 16.613281 -27.253906 17.9375 -28.8125 19.65625 -30.125 C 21.382812 -31.445312 23.316406 -32.460938 25.453125 -33.171875 C 27.585938 -33.878906 29.664062 -34.234375 31.6875 -34.234375 C 34.101562 -34.234375 35.992188 -33.585938 37.359375 -32.296875 C 38.722656 -31.015625 39.691406 -29.429688 40.265625 -27.546875 C 40.847656 -25.660156 41.140625 -23.84375 41.140625 -22.09375 C 41.140625 -21.15625 40.988281 -20.222656 40.6875 -19.296875 C 40.382812 -18.367188 39.820312 -17.4375 39 -16.5 C 38.457031 -15.894531 37.773438 -15.375 36.953125 -14.9375 C 36.128906 -14.5 35.71875 -13.679688 35.71875 -12.484375 Z M 35.71875 -12.484375 "/></g></g></g><g fill="#000000" fill-opacity="1"><g transform="translate(160.594303, 95.479057)"><g/></g></g><g fill="#000000" fill-opacity="1"><g transform="translate(185.223947, 95.479057)"><g><path d="M 36.203125 -47.875 C 36.203125 -45.84375 35.679688 -44.128906 34.640625 -42.734375 C 33.609375 -41.335938 32.109375 -40.421875 30.140625 -39.984375 C 28.160156 -39.710938 26.953125 -39.054688 26.515625 -38.015625 C 26.078125 -36.972656 25.859375 -35.742188 25.859375 -34.328125 C 25.859375 -32.566406 25.707031 -30.820312 25.40625 -29.09375 C 25.113281 -27.375 24.96875 -25.96875 24.96875 -24.875 C 24.96875 -23.945312 25.320312 -23.003906 26.03125 -22.046875 C 26.738281 -21.085938 27.4375 -20.222656 28.125 -19.453125 C 28.8125 -18.691406 29.15625 -18.035156 29.15625 -17.484375 C 29.15625 -16.554688 28.25 -15.679688 26.4375 -14.859375 C 24.90625 -14.148438 23.878906 -13.21875 23.359375 -12.0625 C 22.835938 -10.914062 22.523438 -9.632812 22.421875 -8.21875 C 22.304688 -5.695312 22.113281 -3.117188 21.84375 -0.484375 C 21.570312 2.140625 21.4375 4.789062 21.4375 7.46875 C 21.4375 8.726562 21.1875 10.066406 20.6875 11.484375 C 20.195312 12.910156 19.515625 14.128906 18.640625 15.140625 C 17.765625 16.160156 16.695312 16.671875 15.4375 16.671875 C 14.175781 16.671875 12.957031 16.34375 11.78125 15.6875 C 10.601562 15.03125 10.015625 14.070312 10.015625 12.8125 C 10.015625 12.257812 10.097656 11.710938 10.265625 11.171875 C 11.023438 8.753906 11.421875 6.242188 11.453125 3.640625 C 11.484375 1.046875 11.660156 -1.476562 11.984375 -3.9375 C 12.035156 -4.21875 12.078125 -4.503906 12.109375 -4.796875 C 12.140625 -5.097656 12.15625 -5.390625 12.15625 -5.671875 C 12.15625 -6.921875 11.835938 -7.832031 11.203125 -8.40625 C 10.578125 -8.988281 9.46875 -9.28125 7.875 -9.28125 C 6.507812 -9.382812 5.265625 -9.941406 4.140625 -10.953125 C 3.023438 -11.972656 2.46875 -12.972656 2.46875 -13.953125 C 2.46875 -14.390625 2.695312 -14.976562 3.15625 -15.71875 C 3.625 -16.457031 4.242188 -16.9375 5.015625 -17.15625 C 7.304688 -17.925781 9.09375 -18.96875 10.375 -20.28125 C 11.664062 -21.59375 12.613281 -23.082031 13.21875 -24.75 C 13.820312 -26.425781 14.21875 -28.207031 14.40625 -30.09375 C 14.601562 -31.976562 14.78125 -33.878906 14.9375 -35.796875 C 15.21875 -39.140625 15.476562 -42.476562 15.71875 -45.8125 C 15.96875 -49.15625 16.257812 -52.492188 16.59375 -55.828125 C 17.082031 -60.972656 19.242188 -63.546875 23.078125 -63.546875 C 25.585938 -63.546875 27.84375 -62.863281 29.84375 -61.5 C 31.84375 -60.132812 33.414062 -58.382812 34.5625 -56.25 C 35.71875 -54.113281 36.296875 -51.867188 36.296875 -49.515625 C 36.296875 -49.234375 36.296875 -48.957031 36.296875 -48.6875 C 36.296875 -48.414062 36.265625 -48.144531 36.203125 -47.875 Z M 36.203125 -47.875 "/></g></g></g><g fill="#000000" fill-opacity="1"><g transform="translate(217.406687, 95.479057)"><g><path d="M 16.5 -22.328125 C 18.195312 -22.328125 19.71875 -21.847656 21.0625 -20.890625 C 22.40625 -19.929688 23.484375 -18.6875 24.296875 -17.15625 C 25.117188 -15.625 25.53125 -14.007812 25.53125 -12.3125 C 25.476562 -10.394531 24.914062 -8.628906 23.84375 -7.015625 C 22.78125 -5.398438 21.398438 -4.097656 19.703125 -3.109375 C 18.003906 -2.128906 16.144531 -1.640625 14.125 -1.640625 C 11.0625 -1.640625 8.625 -2.472656 6.8125 -4.140625 C 5.007812 -5.816406 4.109375 -7.882812 4.109375 -10.34375 C 4.109375 -14.726562 5.132812 -17.820312 7.1875 -19.625 C 9.238281 -21.425781 12.34375 -22.328125 16.5 -22.328125 Z M 16.5 -22.328125 "/></g></g></g><g fill="#000000" fill-opacity="1"><g transform="translate(247.044359, 95.479057)"><g><path d="M 33.34375 7.546875 C 32.957031 12.148438 31.925781 16.394531 30.25 20.28125 C 28.582031 24.164062 26.050781 27.5625 22.65625 30.46875 C 21.945312 31.007812 21.195312 31.429688 20.40625 31.734375 C 19.613281 32.035156 18.914062 32.1875 18.3125 32.1875 C 17.164062 32.1875 16.054688 31.71875 14.984375 30.78125 C 13.921875 29.851562 13.390625 28.625 13.390625 27.09375 C 13.390625 26.332031 13.578125 25.660156 13.953125 25.078125 C 14.335938 24.503906 14.773438 23.945312 15.265625 23.40625 C 16.691406 21.925781 17.910156 20.078125 18.921875 17.859375 C 19.929688 15.640625 20.722656 13.394531 21.296875 11.125 C 21.878906 8.851562 22.171875 6.925781 22.171875 5.34375 C 22.171875 4.1875 22.085938 2.800781 21.921875 1.1875 C 21.753906 -0.425781 21.476562 -1.984375 21.09375 -3.484375 C 20.71875 -4.992188 20.226562 -6.253906 19.625 -7.265625 C 19.019531 -8.273438 18.28125 -8.78125 17.40625 -8.78125 C 16.863281 -8.78125 16.164062 -8.570312 15.3125 -8.15625 C 14.46875 -7.75 13.535156 -7.34375 12.515625 -6.9375 C 11.503906 -6.53125 10.476562 -6.328125 9.4375 -6.328125 C 8.394531 -6.328125 7.328125 -6.625 6.234375 -7.21875 C 5.140625 -7.820312 4.238281 -8.6875 3.53125 -9.8125 C 2.820312 -10.9375 2.46875 -12.265625 2.46875 -13.796875 C 2.46875 -15.054688 2.863281 -16.34375 3.65625 -17.65625 C 4.445312 -18.96875 5.484375 -20.070312 6.765625 -20.96875 C 8.054688 -21.875 9.414062 -22.328125 10.84375 -22.328125 C 11.28125 -22.328125 11.71875 -22.285156 12.15625 -22.203125 C 12.59375 -22.128906 13.003906 -22.09375 13.390625 -22.09375 C 14.640625 -22.09375 15.8125 -22.347656 16.90625 -22.859375 C 18.007812 -23.378906 19.109375 -24.160156 20.203125 -25.203125 C 20.859375 -25.804688 21.757812 -26.109375 22.90625 -26.109375 C 23.945312 -26.109375 24.972656 -25.863281 25.984375 -25.375 C 26.992188 -24.882812 27.84375 -24.210938 28.53125 -23.359375 C 29.21875 -22.515625 29.5625 -21.539062 29.5625 -20.4375 C 29.5625 -17.644531 29.859375 -14.9375 30.453125 -12.3125 C 31.054688 -9.6875 31.660156 -7.070312 32.265625 -4.46875 C 32.867188 -1.875 33.171875 0.789062 33.171875 3.53125 C 33.171875 4.238281 33.15625 4.9375 33.125 5.625 C 33.101562 6.3125 33.175781 6.953125 33.34375 7.546875 Z M 33.34375 7.546875 "/></g></g></g><g fill="#000000" fill-opacity="1"><g transform="translate(92.123898, 167.687001)"><g><path d="M 17 -29.390625 C 17 -26.222656 16.859375 -23.050781 16.578125 -19.875 C 16.304688 -16.695312 16.171875 -13.492188 16.171875 -10.265625 C 16.171875 -8.734375 16.304688 -7.210938 16.578125 -5.703125 C 16.859375 -4.203125 17 -2.710938 17 -1.234375 C 17 -0.242188 16.695312 0.753906 16.09375 1.765625 C 15.488281 2.773438 14.75 3.632812 13.875 4.34375 C 13 5.0625 12.125 5.421875 11.25 5.421875 C 10.425781 5.421875 9.546875 5.0625 8.609375 4.34375 C 7.679688 3.632812 6.863281 2.742188 6.15625 1.671875 C 5.445312 0.609375 5.007812 -0.492188 4.84375 -1.640625 C 4.351562 -6.078125 4.109375 -10.507812 4.109375 -14.9375 C 4.109375 -20.519531 4.269531 -26.269531 4.59375 -32.1875 C 4.925781 -38.101562 5.285156 -43.878906 5.671875 -49.515625 C 5.828125 -52.359375 6.300781 -54.351562 7.09375 -55.5 C 7.894531 -56.65625 9.222656 -57.234375 11.078125 -57.234375 C 13.109375 -57.234375 14.753906 -56.519531 16.015625 -55.09375 C 17.273438 -53.664062 17.90625 -51.804688 17.90625 -49.515625 C 17.90625 -46.503906 17.738281 -43.546875 17.40625 -40.640625 C 17.082031 -37.742188 16.921875 -34.84375 16.921875 -31.9375 C 16.921875 -31.550781 16.921875 -31.140625 16.921875 -30.703125 C 16.921875 -30.265625 16.945312 -29.828125 17 -29.390625 Z M 17 -29.390625 "/></g></g></g><g fill="#000000" fill-opacity="1"><g transform="translate(112.484401, 167.687001)"><g><path d="M 35.71875 -12.484375 C 36.15625 -11.765625 36.753906 -11.28125 37.515625 -11.03125 C 38.285156 -10.789062 39.132812 -10.644531 40.0625 -10.59375 C 41 -10.539062 41.890625 -10.429688 42.734375 -10.265625 C 43.585938 -10.097656 44.285156 -9.726562 44.828125 -9.15625 C 45.378906 -8.582031 45.65625 -7.664062 45.65625 -6.40625 C 45.65625 -4.757812 45.175781 -3.414062 44.21875 -2.375 C 43.257812 -1.34375 42.050781 -0.566406 40.59375 -0.046875 C 39.144531 0.472656 37.613281 0.828125 36 1.015625 C 34.382812 1.210938 32.921875 1.3125 31.609375 1.3125 C 29.585938 1.3125 27.617188 0.953125 25.703125 0.234375 C 23.785156 -0.472656 21.976562 -1.703125 20.28125 -3.453125 C 19.238281 -4.546875 18.222656 -5.351562 17.234375 -5.875 C 16.253906 -6.394531 15.191406 -6.65625 14.046875 -6.65625 C 13.222656 -6.65625 12.316406 -6.488281 11.328125 -6.15625 C 10.347656 -5.832031 9.390625 -5.671875 8.453125 -5.671875 C 7.253906 -5.671875 5.992188 -6.050781 4.671875 -6.8125 C 3.359375 -7.582031 2.25 -8.566406 1.34375 -9.765625 C 0.445312 -10.972656 0 -12.207031 0 -13.46875 C 0 -15.269531 0.640625 -16.828125 1.921875 -18.140625 C 3.210938 -19.453125 4.648438 -20.109375 6.234375 -20.109375 C 6.566406 -20.109375 6.910156 -20.09375 7.265625 -20.0625 C 7.617188 -20.039062 7.9375 -20.03125 8.21875 -20.03125 C 10.070312 -20.03125 11.519531 -20.535156 12.5625 -21.546875 C 13.601562 -22.566406 14.644531 -23.867188 15.6875 -25.453125 C 16.613281 -27.253906 17.9375 -28.8125 19.65625 -30.125 C 21.382812 -31.445312 23.316406 -32.460938 25.453125 -33.171875 C 27.585938 -33.878906 29.664062 -34.234375 31.6875 -34.234375 C 34.101562 -34.234375 35.992188 -33.585938 37.359375 -32.296875 C 38.722656 -31.015625 39.691406 -29.429688 40.265625 -27.546875 C 40.847656 -25.660156 41.140625 -23.84375 41.140625 -22.09375 C 41.140625 -21.15625 40.988281 -20.222656 40.6875 -19.296875 C 40.382812 -18.367188 39.820312 -17.4375 39 -16.5 C 38.457031 -15.894531 37.773438 -15.375 36.953125 -14.9375 C 36.128906 -14.5 35.71875 -13.679688 35.71875 -12.484375 Z M 35.71875 -12.484375 "/></g></g></g><g fill="#000000" fill-opacity="1"><g transform="translate(160.594303, 167.687001)"><g/></g></g><g fill="#000000" fill-opacity="1"><g transform="translate(185.223947, 167.687001)"><g><path d="M 36.203125 -47.875 C 36.203125 -45.84375 35.679688 -44.128906 34.640625 -42.734375 C 33.609375 -41.335938 32.109375 -40.421875 30.140625 -39.984375 C 28.160156 -39.710938 26.953125 -39.054688 26.515625 -38.015625 C 26.078125 -36.972656 25.859375 -35.742188 25.859375 -34.328125 C 25.859375 -32.566406 25.707031 -30.820312 25.40625 -29.09375 C 25.113281 -27.375 24.96875 -25.96875 24.96875 -24.875 C 24.96875 -23.945312 25.320312 -23.003906 26.03125 -22.046875 C 26.738281 -21.085938 27.4375 -20.222656 28.125 -19.453125 C 28.8125 -18.691406 29.15625 -18.035156 29.15625 -17.484375 C 29.15625 -16.554688 28.25 -15.679688 26.4375 -14.859375 C 24.90625 -14.148438 23.878906 -13.21875 23.359375 -12.0625 C 22.835938 -10.914062 22.523438 -9.632812 22.421875 -8.21875 C 22.304688 -5.695312 22.113281 -3.117188 21.84375 -0.484375 C 21.570312 2.140625 21.4375 4.789062 21.4375 7.46875 C 21.4375 8.726562 21.1875 10.066406 20.6875 11.484375 C 20.195312 12.910156 19.515625 14.128906 18.640625 15.140625 C 17.765625 16.160156 16.695312 16.671875 15.4375 16.671875 C 14.175781 16.671875 12.957031 16.34375 11.78125 15.6875 C 10.601562 15.03125 10.015625 14.070312 10.015625 12.8125 C 10.015625 12.257812 10.097656 11.710938 10.265625 11.171875 C 11.023438 8.753906 11.421875 6.242188 11.453125 3.640625 C 11.484375 1.046875 11.660156 -1.476562 11.984375 -3.9375 C 12.035156 -4.21875 12.078125 -4.503906 12.109375 -4.796875 C 12.140625 -5.097656 12.15625 -5.390625 12.15625 -5.671875 C 12.15625 -6.921875 11.835938 -7.832031 11.203125 -8.40625 C 10.578125 -8.988281 9.46875 -9.28125 7.875 -9.28125 C 6.507812 -9.382812 5.265625 -9.941406 4.140625 -10.953125 C 3.023438 -11.972656 2.46875 -12.972656 2.46875 -13.953125 C 2.46875 -14.390625 2.695312 -14.976562 3.15625 -15.71875 C 3.625 -16.457031 4.242188 -16.9375 5.015625 -17.15625 C 7.304688 -17.925781 9.09375 -18.96875 10.375 -20.28125 C 11.664062 -21.59375 12.613281 -23.082031 13.21875 -24.75 C 13.820312 -26.425781 14.21875 -28.207031 14.40625 -30.09375 C 14.601562 -31.976562 14.78125 -33.878906 14.9375 -35.796875 C 15.21875 -39.140625 15.476562 -42.476562 15.71875 -45.8125 C 15.96875 -49.15625 16.257812 -52.492188 16.59375 -55.828125 C 17.082031 -60.972656 19.242188 -63.546875 23.078125 -63.546875 C 25.585938 -63.546875 27.84375 -62.863281 29.84375 -61.5 C 31.84375 -60.132812 33.414062 -58.382812 34.5625 -56.25 C 35.71875 -54.113281 36.296875 -51.867188 36.296875 -49.515625 C 36.296875 -49.234375 36.296875 -48.957031 36.296875 -48.6875 C 36.296875 -48.414062 36.265625 -48.144531 36.203125 -47.875 Z M 36.203125 -47.875 "/></g></g></g><g fill="#000000" fill-opacity="1"><g transform="translate(217.406687, 167.687001)"><g><path d="M 16.5 -22.328125 C 18.195312 -22.328125 19.71875 -21.847656 21.0625 -20.890625 C 22.40625 -19.929688 23.484375 -18.6875 24.296875 -17.15625 C 25.117188 -15.625 25.53125 -14.007812 25.53125 -12.3125 C 25.476562 -10.394531 24.914062 -8.628906 23.84375 -7.015625 C 22.78125 -5.398438 21.398438 -4.097656 19.703125 -3.109375 C 18.003906 -2.128906 16.144531 -1.640625 14.125 -1.640625 C 11.0625 -1.640625 8.625 -2.472656 6.8125 -4.140625 C 5.007812 -5.816406 4.109375 -7.882812 4.109375 -10.34375 C 4.109375 -14.726562 5.132812 -17.820312 7.1875 -19.625 C 9.238281 -21.425781 12.34375 -22.328125 16.5 -22.328125 Z M 16.5 -22.328125 "/></g></g></g><g fill="#000000" fill-opacity="1"><g transform="translate(247.044359, 167.687001)"><g><path d="M 33.34375 7.546875 C 32.957031 12.148438 31.925781 16.394531 30.25 20.28125 C 28.582031 24.164062 26.050781 27.5625 22.65625 30.46875 C 21.945312 31.007812 21.195312 31.429688 20.40625 31.734375 C 19.613281 32.035156 18.914062 32.1875 18.3125 32.1875 C 17.164062 32.1875 16.054688 31.71875 14.984375 30.78125 C 13.921875 29.851562 13.390625 28.625 13.390625 27.09375 C 13.390625 26.332031 13.578125 25.660156 13.953125 25.078125 C 14.335938 24.503906 14.773438 23.945312 15.265625 23.40625 C 16.691406 21.925781 17.910156 20.078125 18.921875 17.859375 C 19.929688 15.640625 20.722656 13.394531 21.296875 11.125 C 21.878906 8.851562 22.171875 6.925781 22.171875 5.34375 C 22.171875 4.1875 22.085938 2.800781 21.921875 1.1875 C 21.753906 -0.425781 21.476562 -1.984375 21.09375 -3.484375 C 20.71875 -4.992188 20.226562 -6.253906 19.625 -7.265625 C 19.019531 -8.273438 18.28125 -8.78125 17.40625 -8.78125 C 16.863281 -8.78125 16.164062 -8.570312 15.3125 -8.15625 C 14.46875 -7.75 13.535156 -7.34375 12.515625 -6.9375 C 11.503906 -6.53125 10.476562 -6.328125 9.4375 -6.328125 C 8.394531 -6.328125 7.328125 -6.625 6.234375 -7.21875 C 5.140625 -7.820312 4.238281 -8.6875 3.53125 -9.8125 C 2.820312 -10.9375 2.46875 -12.265625 2.46875 -13.796875 C 2.46875 -15.054688 2.863281 -16.34375 3.65625 -17.65625 C 4.445312 -18.96875 5.484375 -20.070312 6.765625 -20.96875 C 8.054688 -21.875 9.414062 -22.328125 10.84375 -22.328125 C 11.28125 -22.328125 11.71875 -22.285156 12.15625 -22.203125 C 12.59375 -22.128906 13.003906 -22.09375 13.390625 -22.09375 C 14.640625 -22.09375 15.8125 -22.347656 16.90625 -22.859375 C 18.007812 -23.378906 19.109375 -24.160156 20.203125 -25.203125 C 20.859375 -25.804688 21.757812 -26.109375 22.90625 -26.109375 C 23.945312 -26.109375 24.972656 -25.863281 25.984375 -25.375 C 26.992188 -24.882812 27.84375 -24.210938 28.53125 -23.359375 C 29.21875 -22.515625 29.5625 -21.539062 29.5625 -20.4375 C 29.5625 -17.644531 29.859375 -14.9375 30.453125 -12.3125 C 31.054688 -9.6875 31.660156 -7.070312 32.265625 -4.46875 C 32.867188 -1.875 33.171875 0.789062 33.171875 3.53125 C 33.171875 4.238281 33.15625 4.9375 33.125 5.625 C 33.101562 6.3125 33.175781 6.953125 33.34375 7.546875 Z M 33.34375 7.546875 "/></g></g></g></svg>