<svg xmlns="http://www.w3.org/2000/svg" xmlns:xlink="http://www.w3.org/1999/xlink" width="500" zoomAndPan="magnify" viewBox="0 0 375 374.999991" height="500" preserveAspectRatio="xMidYMid meet" version="1.0"><defs><g/></defs><g fill="#f8f7f2" fill-opacity="1"><g transform="translate(92.123898, 205.598268)"><g><path d="M 17 -29.390625 C 17 -26.222656 16.859375 -23.050781 16.578125 -19.875 C 16.304688 -16.695312 16.171875 -13.492188 16.171875 -10.265625 C 16.171875 -8.734375 16.304688 -7.210938 16.578125 -5.703125 C 16.859375 -4.203125 17 -2.710938 17 -1.234375 C 17 -0.242188 16.695312 0.753906 16.09375 1.765625 C 15.488281 2.773438 14.75 3.632812 13.875 4.34375 C 13 5.0625 12.125 5.421875 11.25 5.421875 C 10.425781 5.421875 9.546875 5.0625 8.609375 4.34375 C 7.679688 3.632812 6.863281 2.742188 6.15625 1.671875 C 5.445312 0.609375 5.007812 -0.492188 4.84375 -1.640625 C 4.351562 -6.078125 4.109375 -10.507812 4.109375 -14.9375 C 4.109375 -20.519531 4.269531 -26.269531 4.59375 -32.1875 C 4.925781 -38.101562 5.285156 -43.878906 5.671875 -49.515625 C 5.828125 -52.359375 6.300781 -54.351562 7.09375 -55.5 C 7.894531 -56.65625 9.222656 -57.234375 11.078125 -57.234375 C 13.109375 -57.234375 14.753906 -56.519531 16.015625 -55.09375 C 17.273438 -53.664062 17.90625 -51.804688 17.90625 -49.515625 C 17.90625 -46.503906 17.738281 -43.546875 17.40625 -40.640625 C 17.082031 -37.742188 16.921875 -34.84375 16.921875 -31.9375 C 16.921875 -31.550781 16.921875 -31.140625 16.921875 -30.703125 C 16.921875 -30.265625 16.945312 -29.828125 17 -29.390625 Z M 17 -29.390625 "/></g></g></g><g fill="#f8f7f2" fill-opacity="1"><g transform="translate(112.484401, 205.598268)"><g><path d="M 35.71875 -12.484375 C 36.15625 -11.765625 36.753906 -11.28125 37.515625 -11.03125 C 38.285156 -10.789062 39.132812 -10.644531 40.0625 -10.59375 C 41 -10.539062 41.890625 -10.429688 42.734375 -10.265625 C 43.585938 -10.097656 44.285156 -9.726562 44.828125 -9.15625 C 45.378906 -8.582031 45.65625 -7.664062 45.65625 -6.40625 C 45.65625 -4.757812 45.175781 -3.414062 44.21875 -2.375 C 43.257812 -1.34375 42.050781 -0.566406 40.59375 -0.046875 C 39.144531 0.472656 37.613281 0.828125 36 1.015625 C 34.382812 1.210938 32.921875 1.3125 31.609375 1.3125 C 29.585938 1.3125 27.617188 0.953125 25.703125 0.234375 C 23.785156 -0.472656 21.976562 -1.703125 20.28125 -3.453125 C 19.238281 -4.546875 18.222656 -5.351562 17.234375 -5.875 C 16.253906 -6.394531 15.191406 -6.65625 14.046875 -6.65625 C 13.222656 -6.65625 12.316406 -6.488281 11.328125 -6.15625 C 10.347656 -5.832031 9.390625 -5.671875 8.453125 -5.671875 C 7.253906 -5.671875 5.992188 -6.050781 4.671875 -6.8125 C 3.359375 -7.582031 2.25 -8.566406 1.34375 -9.765625 C 0.445312 -10.972656 0 -12.207031 0 -13.46875 C 0 -15.269531 0.640625 -16.828125 1.921875 -18.140625 C 3.210938 -19.453125 4.648438 -20.109375 6.234375 -20.109375 C 6.566406 -20.109375 6.910156 -20.09375 7.265625 -20.0625 C 7.617188 -20.039062 7.9375 -20.03125 8.21875 -20.03125 C 10.070312 -20.03125 11.519531 -20.535156 12.5625 -21.546875 C 13.601562 -22.566406 14.644531 -23.867188 15.6875 -25.453125 C 16.613281 -27.253906 17.9375 -28.8125 19.65625 -30.125 C 21.382812 -31.445312 23.316406 -32.460938 25.453125 -33.171875 C 27.585938 -33.878906 29.664062 -34.234375 31.6875 -34.234375 C 34.101562 -34.234375 35.992188 -33.585938 37.359375 -32.296875 C 38.722656 -31.015625 39.691406 -29.429688 40.265625 -27.546875 C 40.847656 -25.660156 41.140625 -23.84375 41.140625 -22.09375 C 41.140625 -21.15625 40.988281 -20.222656 40.6875 -19.296875 C 40.382812 -18.367188 39.820312 -17.4375 39 -16.5 C 38.457031 -15.894531 37.773438 -15.375 36.953125 -14.9375 C 36.128906 -14.5 35.71875 -13.679688 35.71875 -12.484375 Z M 35.71875 -12.484375 "/></g></g></g><g fill="#f8f7f2" fill-opacity="1"><g transform="translate(160.594303, 205.598268)"><g/></g></g><g fill="#f8f7f2" fill-opacity="1"><g transform="translate(185.223947, 205.598268)"><g><path d="M 36.203125 -47.875 C 36.203125 -45.84375 35.679688 -44.128906 34.640625 -42.734375 C 33.609375 -41.335938 32.109375 -40.421875 30.140625 -39.984375 C 28.160156 -39.710938 26.953125 -39.054688 26.515625 -38.015625 C 26.078125 -36.972656 25.859375 -35.742188 25.859375 -34.328125 C 25.859375 -32.566406 25.707031 -30.820312 25.40625 -29.09375 C 25.113281 -27.375 24.96875 -25.96875 24.96875 -24.875 C 24.96875 -23.945312 25.320312 -23.003906 26.03125 -22.046875 C 26.738281 -21.085938 27.4375 -20.222656 28.125 -19.453125 C 28.8125 -18.691406 29.15625 -18.035156 29.15625 -17.484375 C 29.15625 -16.554688 28.25 -15.679688 26.4375 -14.859375 C 24.90625 -14.148438 23.878906 -13.21875 23.359375 -12.0625 C 22.835938 -10.914062 22.523438 -9.632812 22.421875 -8.21875 C 22.304688 -5.695312 22.113281 -3.117188 21.84375 -0.484375 C 21.570312 2.140625 21.4375 4.789062 21.4375 7.46875 C 21.4375 8.726562 21.1875 10.066406 20.6875 11.484375 C 20.195312 12.910156 19.515625 14.128906 18.640625 15.140625 C 17.765625 16.160156 16.695312 16.671875 15.4375 16.671875 C 14.175781 16.671875 12.957031 16.34375 11.78125 15.6875 C 10.601562 15.03125 10.015625 14.070312 10.015625 12.8125 C 10.015625 12.257812 10.097656 11.710938 10.265625 11.171875 C 11.023438 8.753906 11.421875 6.242188 11.453125 3.640625 C 11.484375 1.046875 11.660156 -1.476562 11.984375 -3.9375 C 12.035156 -4.21875 12.078125 -4.503906 12.109375 -4.796875 C 12.140625 -5.097656 12.15625 -5.390625 12.15625 -5.671875 C 12.15625 -6.921875 11.835938 -7.832031 11.203125 -8.40625 C 10.578125 -8.988281 9.46875 -9.28125 7.875 -9.28125 C 6.507812 -9.382812 5.265625 -9.941406 4.140625 -10.953125 C 3.023438 -11.972656 2.46875 -12.972656 2.46875 -13.953125 C 2.46875 -14.390625 2.695312 -14.976562 3.15625 -15.71875 C 3.625 -16.457031 4.242188 -16.9375 5.015625 -17.15625 C 7.304688 -17.925781 9.09375 -18.96875 10.375 -20.28125 C 11.664062 -21.59375 12.613281 -23.082031 13.21875 -24.75 C 13.820312 -26.425781 14.21875 -28.207031 14.40625 -30.09375 C 14.601562 -31.976562 14.78125 -33.878906 14.9375 -35.796875 C 15.21875 -39.140625 15.476562 -42.476562 15.71875 -45.8125 C 15.96875 -49.15625 16.257812 -52.492188 16.59375 -55.828125 C 17.082031 -60.972656 19.242188 -63.546875 23.078125 -63.546875 C 25.585938 -63.546875 27.84375 -62.863281 29.84375 -61.5 C 31.84375 -60.132812 33.414062 -58.382812 34.5625 -56.25 C 35.71875 -54.113281 36.296875 -51.867188 36.296875 -49.515625 C 36.296875 -49.234375 36.296875 -48.957031 36.296875 -48.6875 C 36.296875 -48.414062 36.265625 -48.144531 36.203125 -47.875 Z M 36.203125 -47.875 "/></g></g></g><g fill="#f8f7f2" fill-opacity="1"><g transform="translate(217.406687, 205.598268)"><g><path d="M 16.5 -22.328125 C 18.195312 -22.328125 19.71875 -21.847656 21.0625 -20.890625 C 22.40625 -19.929688 23.484375 -18.6875 24.296875 -17.15625 C 25.117188 -15.625 25.53125 -14.007812 25.53125 -12.3125 C 25.476562 -10.394531 24.914062 -8.628906 23.84375 -7.015625 C 22.78125 -5.398438 21.398438 -4.097656 19.703125 -3.109375 C 18.003906 -2.128906 16.144531 -1.640625 14.125 -1.640625 C 11.0625 -1.640625 8.625 -2.472656 6.8125 -4.140625 C 5.007812 -5.816406 4.109375 -7.882812 4.109375 -10.34375 C 4.109375 -14.726562 5.132812 -17.820312 7.1875 -19.625 C 9.238281 -21.425781 12.34375 -22.328125 16.5 -22.328125 Z M 16.5 -22.328125 "/></g></g></g><g fill="#f8f7f2" fill-opacity="1"><g transform="translate(247.044359, 205.598268)"><g><path d="M 33.34375 7.546875 C 32.957031 12.148438 31.925781 16.394531 30.25 20.28125 C 28.582031 24.164062 26.050781 27.5625 22.65625 30.46875 C 21.945312 31.007812 21.195312 31.429688 20.40625 31.734375 C 19.613281 32.035156 18.914062 32.1875 18.3125 32.1875 C 17.164062 32.1875 16.054688 31.71875 14.984375 30.78125 C 13.921875 29.851562 13.390625 28.625 13.390625 27.09375 C 13.390625 26.332031 13.578125 25.660156 13.953125 25.078125 C 14.335938 24.503906 14.773438 23.945312 15.265625 23.40625 C 16.691406 21.925781 17.910156 20.078125 18.921875 17.859375 C 19.929688 15.640625 20.722656 13.394531 21.296875 11.125 C 21.878906 8.851562 22.171875 6.925781 22.171875 5.34375 C 22.171875 4.1875 22.085938 2.800781 21.921875 1.1875 C 21.753906 -0.425781 21.476562 -1.984375 21.09375 -3.484375 C 20.71875 -4.992188 20.226562 -6.253906 19.625 -7.265625 C 19.019531 -8.273438 18.28125 -8.78125 17.40625 -8.78125 C 16.863281 -8.78125 16.164062 -8.570312 15.3125 -8.15625 C 14.46875 -7.75 13.535156 -7.34375 12.515625 -6.9375 C 11.503906 -6.53125 10.476562 -6.328125 9.4375 -6.328125 C 8.394531 -6.328125 7.328125 -6.625 6.234375 -7.21875 C 5.140625 -7.820312 4.238281 -8.6875 3.53125 -9.8125 C 2.820312 -10.9375 2.46875 -12.265625 2.46875 -13.796875 C 2.46875 -15.054688 2.863281 -16.34375 3.65625 -17.65625 C 4.445312 -18.96875 5.484375 -20.070312 6.765625 -20.96875 C 8.054688 -21.875 9.414062 -22.328125 10.84375 -22.328125 C 11.28125 -22.328125 11.71875 -22.285156 12.15625 -22.203125 C 12.59375 -22.128906 13.003906 -22.09375 13.390625 -22.09375 C 14.640625 -22.09375 15.8125 -22.347656 16.90625 -22.859375 C 18.007812 -23.378906 19.109375 -24.160156 20.203125 -25.203125 C 20.859375 -25.804688 21.757812 -26.109375 22.90625 -26.109375 C 23.945312 -26.109375 24.972656 -25.863281 25.984375 -25.375 C 26.992188 -24.882812 27.84375 -24.210938 28.53125 -23.359375 C 29.21875 -22.515625 29.5625 -21.539062 29.5625 -20.4375 C 29.5625 -17.644531 29.859375 -14.9375 30.453125 -12.3125 C 31.054688 -9.6875 31.660156 -7.070312 32.265625 -4.46875 C 32.867188 -1.875 33.171875 0.789062 33.171875 3.53125 C 33.171875 4.238281 33.15625 4.9375 33.125 5.625 C 33.101562 6.3125 33.175781 6.953125 33.34375 7.546875 Z M 33.34375 7.546875 "/></g></g></g><g fill="#f8f7f2" fill-opacity="1"><g transform="translate(160.30167, 242.915727)"><g><path d="M 10.6875 -0.390625 C 10.65625 -0.273438 10.570312 -0.191406 10.4375 -0.140625 C 10.3125 -0.0976562 10.160156 -0.0703125 9.984375 -0.0625 C 9.804688 -0.0625 9.640625 -0.0664062 9.484375 -0.078125 C 9.441406 -0.0859375 9.398438 -0.09375 9.359375 -0.09375 C 9.328125 -0.09375 9.296875 -0.09375 9.265625 -0.09375 C 9.179688 -0.09375 9.097656 -0.0976562 9.015625 -0.109375 C 8.929688 -0.117188 8.851562 -0.128906 8.78125 -0.140625 C 8.675781 -0.160156 8.578125 -0.175781 8.484375 -0.1875 C 8.390625 -0.195312 8.296875 -0.203125 8.203125 -0.203125 C 8.203125 -0.390625 8.265625 -0.507812 8.390625 -0.5625 C 8.523438 -0.613281 8.664062 -0.65625 8.8125 -0.6875 C 8.925781 -0.875 8.988281 -1.128906 9 -1.453125 C 9.007812 -1.785156 9.007812 -2.144531 9 -2.53125 C 9 -2.570312 8.992188 -2.613281 8.984375 -2.65625 C 8.984375 -2.707031 8.984375 -2.753906 8.984375 -2.796875 C 8.972656 -3.109375 8.96875 -3.421875 8.96875 -3.734375 C 8.96875 -4.046875 8.953125 -4.328125 8.921875 -4.578125 C 8.890625 -4.816406 8.816406 -5.015625 8.703125 -5.171875 C 8.585938 -5.328125 8.390625 -5.414062 8.109375 -5.4375 C 7.835938 -5.445312 7.609375 -5.394531 7.421875 -5.28125 C 7.234375 -5.175781 7.078125 -5.023438 6.953125 -4.828125 C 6.753906 -4.492188 6.617188 -4.085938 6.546875 -3.609375 C 6.484375 -3.140625 6.453125 -2.6875 6.453125 -2.25 C 6.453125 -2.226562 6.453125 -2.203125 6.453125 -2.171875 C 6.453125 -1.859375 6.460938 -1.578125 6.484375 -1.328125 C 6.503906 -1.085938 6.582031 -0.875 6.71875 -0.6875 C 6.726562 -0.6875 6.75 -0.679688 6.78125 -0.671875 C 6.925781 -0.648438 7.050781 -0.609375 7.15625 -0.546875 C 7.257812 -0.492188 7.304688 -0.378906 7.296875 -0.203125 C 6.953125 -0.128906 6.65625 -0.0859375 6.40625 -0.078125 C 6.164062 -0.078125 5.910156 -0.0859375 5.640625 -0.109375 C 5.515625 -0.117188 5.378906 -0.125 5.234375 -0.125 C 5.085938 -0.125 4.929688 -0.125 4.765625 -0.125 C 4.765625 -0.257812 4.789062 -0.359375 4.84375 -0.421875 C 4.90625 -0.484375 4.976562 -0.53125 5.0625 -0.5625 C 5.144531 -0.601562 5.226562 -0.640625 5.3125 -0.671875 C 5.40625 -0.703125 5.476562 -0.75 5.53125 -0.8125 C 5.539062 -1.019531 5.546875 -1.289062 5.546875 -1.625 C 5.554688 -1.96875 5.5625 -2.328125 5.5625 -2.703125 C 5.570312 -3.085938 5.578125 -3.441406 5.578125 -3.765625 C 5.578125 -4.140625 5.539062 -4.46875 5.46875 -4.75 C 5.394531 -5.039062 5.242188 -5.253906 5.015625 -5.390625 C 4.828125 -5.503906 4.644531 -5.546875 4.46875 -5.515625 C 4.300781 -5.492188 4.140625 -5.425781 3.984375 -5.3125 C 3.804688 -5.175781 3.644531 -5 3.5 -4.78125 C 3.351562 -4.570312 3.226562 -4.378906 3.125 -4.203125 C 3.125 -4.148438 3.125 -4.097656 3.125 -4.046875 C 3.125 -4.003906 3.117188 -3.957031 3.109375 -3.90625 C 3.097656 -3.320312 3.09375 -2.742188 3.09375 -2.171875 C 3.101562 -1.597656 3.160156 -1.085938 3.265625 -0.640625 C 3.347656 -0.597656 3.445312 -0.566406 3.5625 -0.546875 C 3.6875 -0.535156 3.796875 -0.507812 3.890625 -0.46875 C 3.992188 -0.4375 4.054688 -0.359375 4.078125 -0.234375 C 3.953125 -0.128906 3.804688 -0.078125 3.640625 -0.078125 C 3.484375 -0.078125 3.320312 -0.0859375 3.15625 -0.109375 C 3.082031 -0.117188 3.003906 -0.125 2.921875 -0.125 C 2.847656 -0.125 2.773438 -0.125 2.703125 -0.125 C 2.628906 -0.125 2.550781 -0.117188 2.46875 -0.109375 C 2.394531 -0.0976562 2.328125 -0.0859375 2.265625 -0.078125 C 2.097656 -0.0546875 1.9375 -0.0390625 1.78125 -0.03125 C 1.632812 -0.03125 1.488281 -0.0859375 1.34375 -0.203125 C 1.363281 -0.378906 1.421875 -0.488281 1.515625 -0.53125 C 1.609375 -0.570312 1.710938 -0.601562 1.828125 -0.625 C 1.953125 -0.644531 2.054688 -0.707031 2.140625 -0.8125 C 2.171875 -1.519531 2.175781 -2.273438 2.15625 -3.078125 C 2.132812 -3.878906 2.117188 -4.648438 2.109375 -5.390625 C 2.097656 -5.429688 2.09375 -5.460938 2.09375 -5.484375 C 2.09375 -5.515625 2.09375 -5.550781 2.09375 -5.59375 C 2.070312 -5.59375 2.019531 -5.585938 1.9375 -5.578125 C 1.832031 -5.554688 1.71875 -5.539062 1.59375 -5.53125 C 1.476562 -5.53125 1.394531 -5.582031 1.34375 -5.6875 C 1.351562 -5.8125 1.421875 -5.914062 1.546875 -6 C 1.679688 -6.101562 1.847656 -6.171875 2.046875 -6.203125 C 2.253906 -6.234375 2.453125 -6.238281 2.640625 -6.21875 C 2.828125 -6.195312 2.960938 -6.144531 3.046875 -6.0625 C 3.046875 -6.050781 3.046875 -6.039062 3.046875 -6.03125 C 3.054688 -6.03125 3.0625 -6.019531 3.0625 -6 C 3.070312 -5.90625 3.070312 -5.773438 3.0625 -5.609375 C 3.050781 -5.453125 3.035156 -5.3125 3.015625 -5.1875 C 3.003906 -5.070312 3 -5.015625 3 -5.015625 C 3.144531 -5.316406 3.390625 -5.550781 3.734375 -5.71875 C 4.078125 -5.882812 4.4375 -5.972656 4.8125 -5.984375 C 5.175781 -5.992188 5.503906 -5.90625 5.796875 -5.71875 C 6.085938 -5.539062 6.269531 -5.253906 6.34375 -4.859375 C 6.519531 -5.066406 6.6875 -5.273438 6.84375 -5.484375 C 7 -5.703125 7.203125 -5.867188 7.453125 -5.984375 C 7.585938 -6.046875 7.734375 -6.085938 7.890625 -6.109375 C 8.054688 -6.140625 8.242188 -6.140625 8.453125 -6.109375 C 8.609375 -6.078125 8.75 -6.035156 8.875 -5.984375 C 9.144531 -5.867188 9.347656 -5.691406 9.484375 -5.453125 C 9.628906 -5.210938 9.726562 -4.925781 9.78125 -4.59375 C 9.832031 -4.300781 9.859375 -3.984375 9.859375 -3.640625 C 9.859375 -3.296875 9.859375 -2.945312 9.859375 -2.59375 C 9.847656 -2.289062 9.84375 -1.992188 9.84375 -1.703125 C 9.84375 -1.410156 9.859375 -1.128906 9.890625 -0.859375 C 10.023438 -0.785156 10.171875 -0.71875 10.328125 -0.65625 C 10.484375 -0.601562 10.601562 -0.515625 10.6875 -0.390625 Z M 10.6875 -0.390625 "/></g></g></g><g fill="#f8f7f2" fill-opacity="1"><g transform="translate(176.802575, 242.915727)"><g><path d="M 10.6875 -0.390625 C 10.65625 -0.273438 10.570312 -0.191406 10.4375 -0.140625 C 10.3125 -0.0976562 10.160156 -0.0703125 9.984375 -0.0625 C 9.804688 -0.0625 9.640625 -0.0664062 9.484375 -0.078125 C 9.441406 -0.0859375 9.398438 -0.09375 9.359375 -0.09375 C 9.328125 -0.09375 9.296875 -0.09375 9.265625 -0.09375 C 9.179688 -0.09375 9.097656 -0.0976562 9.015625 -0.109375 C 8.929688 -0.117188 8.851562 -0.128906 8.78125 -0.140625 C 8.675781 -0.160156 8.578125 -0.175781 8.484375 -0.1875 C 8.390625 -0.195312 8.296875 -0.203125 8.203125 -0.203125 C 8.203125 -0.390625 8.265625 -0.507812 8.390625 -0.5625 C 8.523438 -0.613281 8.664062 -0.65625 8.8125 -0.6875 C 8.925781 -0.875 8.988281 -1.128906 9 -1.453125 C 9.007812 -1.785156 9.007812 -2.144531 9 -2.53125 C 9 -2.570312 8.992188 -2.613281 8.984375 -2.65625 C 8.984375 -2.707031 8.984375 -2.753906 8.984375 -2.796875 C 8.972656 -3.109375 8.96875 -3.421875 8.96875 -3.734375 C 8.96875 -4.046875 8.953125 -4.328125 8.921875 -4.578125 C 8.890625 -4.816406 8.816406 -5.015625 8.703125 -5.171875 C 8.585938 -5.328125 8.390625 -5.414062 8.109375 -5.4375 C 7.835938 -5.445312 7.609375 -5.394531 7.421875 -5.28125 C 7.234375 -5.175781 7.078125 -5.023438 6.953125 -4.828125 C 6.753906 -4.492188 6.617188 -4.085938 6.546875 -3.609375 C 6.484375 -3.140625 6.453125 -2.6875 6.453125 -2.25 C 6.453125 -2.226562 6.453125 -2.203125 6.453125 -2.171875 C 6.453125 -1.859375 6.460938 -1.578125 6.484375 -1.328125 C 6.503906 -1.085938 6.582031 -0.875 6.71875 -0.6875 C 6.726562 -0.6875 6.75 -0.679688 6.78125 -0.671875 C 6.925781 -0.648438 7.050781 -0.609375 7.15625 -0.546875 C 7.257812 -0.492188 7.304688 -0.378906 7.296875 -0.203125 C 6.953125 -0.128906 6.65625 -0.0859375 6.40625 -0.078125 C 6.164062 -0.078125 5.910156 -0.0859375 5.640625 -0.109375 C 5.515625 -0.117188 5.378906 -0.125 5.234375 -0.125 C 5.085938 -0.125 4.929688 -0.125 4.765625 -0.125 C 4.765625 -0.257812 4.789062 -0.359375 4.84375 -0.421875 C 4.90625 -0.484375 4.976562 -0.53125 5.0625 -0.5625 C 5.144531 -0.601562 5.226562 -0.640625 5.3125 -0.671875 C 5.40625 -0.703125 5.476562 -0.75 5.53125 -0.8125 C 5.539062 -1.019531 5.546875 -1.289062 5.546875 -1.625 C 5.554688 -1.96875 5.5625 -2.328125 5.5625 -2.703125 C 5.570312 -3.085938 5.578125 -3.441406 5.578125 -3.765625 C 5.578125 -4.140625 5.539062 -4.46875 5.46875 -4.75 C 5.394531 -5.039062 5.242188 -5.253906 5.015625 -5.390625 C 4.828125 -5.503906 4.644531 -5.546875 4.46875 -5.515625 C 4.300781 -5.492188 4.140625 -5.425781 3.984375 -5.3125 C 3.804688 -5.175781 3.644531 -5 3.5 -4.78125 C 3.351562 -4.570312 3.226562 -4.378906 3.125 -4.203125 C 3.125 -4.148438 3.125 -4.097656 3.125 -4.046875 C 3.125 -4.003906 3.117188 -3.957031 3.109375 -3.90625 C 3.097656 -3.320312 3.09375 -2.742188 3.09375 -2.171875 C 3.101562 -1.597656 3.160156 -1.085938 3.265625 -0.640625 C 3.347656 -0.597656 3.445312 -0.566406 3.5625 -0.546875 C 3.6875 -0.535156 3.796875 -0.507812 3.890625 -0.46875 C 3.992188 -0.4375 4.054688 -0.359375 4.078125 -0.234375 C 3.953125 -0.128906 3.804688 -0.078125 3.640625 -0.078125 C 3.484375 -0.078125 3.320312 -0.0859375 3.15625 -0.109375 C 3.082031 -0.117188 3.003906 -0.125 2.921875 -0.125 C 2.847656 -0.125 2.773438 -0.125 2.703125 -0.125 C 2.628906 -0.125 2.550781 -0.117188 2.46875 -0.109375 C 2.394531 -0.0976562 2.328125 -0.0859375 2.265625 -0.078125 C 2.097656 -0.0546875 1.9375 -0.0390625 1.78125 -0.03125 C 1.632812 -0.03125 1.488281 -0.0859375 1.34375 -0.203125 C 1.363281 -0.378906 1.421875 -0.488281 1.515625 -0.53125 C 1.609375 -0.570312 1.710938 -0.601562 1.828125 -0.625 C 1.953125 -0.644531 2.054688 -0.707031 2.140625 -0.8125 C 2.171875 -1.519531 2.175781 -2.273438 2.15625 -3.078125 C 2.132812 -3.878906 2.117188 -4.648438 2.109375 -5.390625 C 2.097656 -5.429688 2.09375 -5.460938 2.09375 -5.484375 C 2.09375 -5.515625 2.09375 -5.550781 2.09375 -5.59375 C 2.070312 -5.59375 2.019531 -5.585938 1.9375 -5.578125 C 1.832031 -5.554688 1.71875 -5.539062 1.59375 -5.53125 C 1.476562 -5.53125 1.394531 -5.582031 1.34375 -5.6875 C 1.351562 -5.8125 1.421875 -5.914062 1.546875 -6 C 1.679688 -6.101562 1.847656 -6.171875 2.046875 -6.203125 C 2.253906 -6.234375 2.453125 -6.238281 2.640625 -6.21875 C 2.828125 -6.195312 2.960938 -6.144531 3.046875 -6.0625 C 3.046875 -6.050781 3.046875 -6.039062 3.046875 -6.03125 C 3.054688 -6.03125 3.0625 -6.019531 3.0625 -6 C 3.070312 -5.90625 3.070312 -5.773438 3.0625 -5.609375 C 3.050781 -5.453125 3.035156 -5.3125 3.015625 -5.1875 C 3.003906 -5.070312 3 -5.015625 3 -5.015625 C 3.144531 -5.316406 3.390625 -5.550781 3.734375 -5.71875 C 4.078125 -5.882812 4.4375 -5.972656 4.8125 -5.984375 C 5.175781 -5.992188 5.503906 -5.90625 5.796875 -5.71875 C 6.085938 -5.539062 6.269531 -5.253906 6.34375 -4.859375 C 6.519531 -5.066406 6.6875 -5.273438 6.84375 -5.484375 C 7 -5.703125 7.203125 -5.867188 7.453125 -5.984375 C 7.585938 -6.046875 7.734375 -6.085938 7.890625 -6.109375 C 8.054688 -6.140625 8.242188 -6.140625 8.453125 -6.109375 C 8.609375 -6.078125 8.75 -6.035156 8.875 -5.984375 C 9.144531 -5.867188 9.347656 -5.691406 9.484375 -5.453125 C 9.628906 -5.210938 9.726562 -4.925781 9.78125 -4.59375 C 9.832031 -4.300781 9.859375 -3.984375 9.859375 -3.640625 C 9.859375 -3.296875 9.859375 -2.945312 9.859375 -2.59375 C 9.847656 -2.289062 9.84375 -1.992188 9.84375 -1.703125 C 9.84375 -1.410156 9.859375 -1.128906 9.890625 -0.859375 C 10.023438 -0.785156 10.171875 -0.71875 10.328125 -0.65625 C 10.484375 -0.601562 10.601562 -0.515625 10.6875 -0.390625 Z M 10.6875 -0.390625 "/></g></g></g><g fill="#f8f7f2" fill-opacity="1"><g transform="translate(193.303481, 242.915727)"><g><path d="M 7.21875 -0.265625 C 7.125 -0.171875 7 -0.101562 6.84375 -0.0625 C 6.695312 -0.0195312 6.53125 0 6.34375 0 C 6.238281 0 6.128906 -0.00390625 6.015625 -0.015625 C 5.910156 -0.0234375 5.804688 -0.03125 5.703125 -0.03125 C 5.472656 -0.0390625 5.257812 -0.046875 5.0625 -0.046875 C 4.863281 -0.0546875 4.695312 -0.0390625 4.5625 0 C 4.46875 -0.0820312 4.421875 -0.15625 4.421875 -0.21875 C 4.429688 -0.289062 4.457031 -0.359375 4.5 -0.421875 C 4.507812 -0.453125 4.519531 -0.484375 4.53125 -0.515625 C 4.550781 -0.546875 4.5625 -0.582031 4.5625 -0.625 C 4.6875 -0.613281 4.78125 -0.625 4.84375 -0.65625 C 4.914062 -0.6875 4.976562 -0.71875 5.03125 -0.75 C 5.082031 -0.789062 5.125 -0.8125 5.15625 -0.8125 C 5.101562 -1.03125 5.007812 -1.25 4.875 -1.46875 C 4.738281 -1.6875 4.601562 -1.882812 4.46875 -2.0625 C 4.34375 -2.238281 4.253906 -2.363281 4.203125 -2.4375 C 3.941406 -2.1875 3.703125 -1.90625 3.484375 -1.59375 C 3.273438 -1.289062 3.054688 -1 2.828125 -0.71875 C 2.972656 -0.613281 3.128906 -0.53125 3.296875 -0.46875 C 3.472656 -0.40625 3.601562 -0.289062 3.6875 -0.125 C 3.5625 -0.0625 3.421875 -0.0195312 3.265625 0 C 3.117188 0.03125 2.957031 0.046875 2.78125 0.046875 C 2.707031 0.046875 2.632812 0.0390625 2.5625 0.03125 C 2.488281 0.03125 2.410156 0.03125 2.328125 0.03125 C 2.179688 0.0195312 2.035156 0.015625 1.890625 0.015625 C 1.742188 0.015625 1.601562 0.0234375 1.46875 0.046875 C 1.4375 0.015625 1.421875 -0.0195312 1.421875 -0.0625 C 1.421875 -0.101562 1.390625 -0.125 1.328125 -0.125 C 1.273438 -0.1875 1.253906 -0.238281 1.265625 -0.28125 C 1.273438 -0.320312 1.296875 -0.363281 1.328125 -0.40625 C 1.335938 -0.4375 1.347656 -0.46875 1.359375 -0.5 C 1.378906 -0.539062 1.382812 -0.582031 1.375 -0.625 C 1.570312 -0.664062 1.753906 -0.726562 1.921875 -0.8125 C 2.085938 -0.90625 2.234375 -1.007812 2.359375 -1.125 C 2.492188 -1.289062 2.644531 -1.492188 2.8125 -1.734375 C 2.988281 -1.984375 3.15625 -2.234375 3.3125 -2.484375 C 3.476562 -2.742188 3.601562 -2.945312 3.6875 -3.09375 C 3.46875 -3.457031 3.238281 -3.8125 3 -4.15625 C 2.769531 -4.5 2.507812 -4.816406 2.21875 -5.109375 C 2.1875 -5.148438 2.171875 -5.1875 2.171875 -5.21875 C 2.179688 -5.25 2.1875 -5.273438 2.1875 -5.296875 C 2.207031 -5.335938 2.21875 -5.375 2.21875 -5.40625 C 2.132812 -5.414062 2.054688 -5.414062 1.984375 -5.40625 C 1.921875 -5.394531 1.859375 -5.378906 1.796875 -5.359375 C 1.753906 -5.359375 1.710938 -5.347656 1.671875 -5.328125 C 1.628906 -5.316406 1.582031 -5.3125 1.53125 -5.3125 C 1.46875 -5.363281 1.429688 -5.4375 1.421875 -5.53125 C 1.410156 -5.632812 1.398438 -5.738281 1.390625 -5.84375 C 1.390625 -5.875 1.390625 -5.910156 1.390625 -5.953125 C 1.390625 -5.992188 1.382812 -6.03125 1.375 -6.0625 C 1.570312 -6 1.773438 -5.96875 1.984375 -5.96875 C 2.203125 -5.96875 2.414062 -5.972656 2.625 -5.984375 C 2.738281 -5.992188 2.847656 -6 2.953125 -6 C 3.066406 -6.007812 3.175781 -6.007812 3.28125 -6 C 3.46875 -5.988281 3.632812 -5.957031 3.78125 -5.90625 C 3.9375 -5.851562 4.0625 -5.757812 4.15625 -5.625 C 4.0625 -5.53125 3.929688 -5.453125 3.765625 -5.390625 C 3.609375 -5.328125 3.453125 -5.300781 3.296875 -5.3125 C 3.429688 -5.039062 3.578125 -4.785156 3.734375 -4.546875 C 3.898438 -4.304688 4.054688 -4.054688 4.203125 -3.796875 C 4.460938 -4.015625 4.6875 -4.269531 4.875 -4.5625 C 5.0625 -4.851562 5.253906 -5.132812 5.453125 -5.40625 C 5.359375 -5.457031 5.234375 -5.476562 5.078125 -5.46875 C 4.921875 -5.46875 4.785156 -5.488281 4.671875 -5.53125 C 4.679688 -5.601562 4.695312 -5.675781 4.71875 -5.75 C 4.738281 -5.832031 4.765625 -5.90625 4.796875 -5.96875 C 4.929688 -5.96875 5.070312 -5.96875 5.21875 -5.96875 C 5.375 -5.976562 5.523438 -5.988281 5.671875 -6 L 5.6875 -6 C 5.8125 -6.007812 5.929688 -6.015625 6.046875 -6.015625 C 6.160156 -6.015625 6.28125 -6.003906 6.40625 -5.984375 C 6.53125 -5.972656 6.640625 -5.941406 6.734375 -5.890625 C 6.835938 -5.835938 6.921875 -5.765625 6.984375 -5.671875 C 6.742188 -5.585938 6.539062 -5.472656 6.375 -5.328125 C 6.21875 -5.191406 6.0625 -5.035156 5.90625 -4.859375 C 5.6875 -4.617188 5.484375 -4.351562 5.296875 -4.0625 C 5.109375 -3.769531 4.898438 -3.5 4.671875 -3.25 C 4.898438 -2.832031 5.15625 -2.441406 5.4375 -2.078125 C 5.71875 -1.710938 5.945312 -1.289062 6.125 -0.8125 C 6.363281 -0.78125 6.5625 -0.703125 6.71875 -0.578125 C 6.875 -0.460938 7.039062 -0.359375 7.21875 -0.265625 Z M 7.21875 -0.265625 "/></g></g></g><g fill="#f8f7f2" fill-opacity="1"><g transform="translate(206.367485, 242.915727)"><g><path d="M 7.21875 -0.265625 C 7.125 -0.171875 7 -0.101562 6.84375 -0.0625 C 6.695312 -0.0195312 6.53125 0 6.34375 0 C 6.238281 0 6.128906 -0.00390625 6.015625 -0.015625 C 5.910156 -0.0234375 5.804688 -0.03125 5.703125 -0.03125 C 5.472656 -0.0390625 5.257812 -0.046875 5.0625 -0.046875 C 4.863281 -0.0546875 4.695312 -0.0390625 4.5625 0 C 4.46875 -0.0820312 4.421875 -0.15625 4.421875 -0.21875 C 4.429688 -0.289062 4.457031 -0.359375 4.5 -0.421875 C 4.507812 -0.453125 4.519531 -0.484375 4.53125 -0.515625 C 4.550781 -0.546875 4.5625 -0.582031 4.5625 -0.625 C 4.6875 -0.613281 4.78125 -0.625 4.84375 -0.65625 C 4.914062 -0.6875 4.976562 -0.71875 5.03125 -0.75 C 5.082031 -0.789062 5.125 -0.8125 5.15625 -0.8125 C 5.101562 -1.03125 5.007812 -1.25 4.875 -1.46875 C 4.738281 -1.6875 4.601562 -1.882812 4.46875 -2.0625 C 4.34375 -2.238281 4.253906 -2.363281 4.203125 -2.4375 C 3.941406 -2.1875 3.703125 -1.90625 3.484375 -1.59375 C 3.273438 -1.289062 3.054688 -1 2.828125 -0.71875 C 2.972656 -0.613281 3.128906 -0.53125 3.296875 -0.46875 C 3.472656 -0.40625 3.601562 -0.289062 3.6875 -0.125 C 3.5625 -0.0625 3.421875 -0.0195312 3.265625 0 C 3.117188 0.03125 2.957031 0.046875 2.78125 0.046875 C 2.707031 0.046875 2.632812 0.0390625 2.5625 0.03125 C 2.488281 0.03125 2.410156 0.03125 2.328125 0.03125 C 2.179688 0.0195312 2.035156 0.015625 1.890625 0.015625 C 1.742188 0.015625 1.601562 0.0234375 1.46875 0.046875 C 1.4375 0.015625 1.421875 -0.0195312 1.421875 -0.0625 C 1.421875 -0.101562 1.390625 -0.125 1.328125 -0.125 C 1.273438 -0.1875 1.253906 -0.238281 1.265625 -0.28125 C 1.273438 -0.320312 1.296875 -0.363281 1.328125 -0.40625 C 1.335938 -0.4375 1.347656 -0.46875 1.359375 -0.5 C 1.378906 -0.539062 1.382812 -0.582031 1.375 -0.625 C 1.570312 -0.664062 1.753906 -0.726562 1.921875 -0.8125 C 2.085938 -0.90625 2.234375 -1.007812 2.359375 -1.125 C 2.492188 -1.289062 2.644531 -1.492188 2.8125 -1.734375 C 2.988281 -1.984375 3.15625 -2.234375 3.3125 -2.484375 C 3.476562 -2.742188 3.601562 -2.945312 3.6875 -3.09375 C 3.46875 -3.457031 3.238281 -3.8125 3 -4.15625 C 2.769531 -4.5 2.507812 -4.816406 2.21875 -5.109375 C 2.1875 -5.148438 2.171875 -5.1875 2.171875 -5.21875 C 2.179688 -5.25 2.1875 -5.273438 2.1875 -5.296875 C 2.207031 -5.335938 2.21875 -5.375 2.21875 -5.40625 C 2.132812 -5.414062 2.054688 -5.414062 1.984375 -5.40625 C 1.921875 -5.394531 1.859375 -5.378906 1.796875 -5.359375 C 1.753906 -5.359375 1.710938 -5.347656 1.671875 -5.328125 C 1.628906 -5.316406 1.582031 -5.3125 1.53125 -5.3125 C 1.46875 -5.363281 1.429688 -5.4375 1.421875 -5.53125 C 1.410156 -5.632812 1.398438 -5.738281 1.390625 -5.84375 C 1.390625 -5.875 1.390625 -5.910156 1.390625 -5.953125 C 1.390625 -5.992188 1.382812 -6.03125 1.375 -6.0625 C 1.570312 -6 1.773438 -5.96875 1.984375 -5.96875 C 2.203125 -5.96875 2.414062 -5.972656 2.625 -5.984375 C 2.738281 -5.992188 2.847656 -6 2.953125 -6 C 3.066406 -6.007812 3.175781 -6.007812 3.28125 -6 C 3.46875 -5.988281 3.632812 -5.957031 3.78125 -5.90625 C 3.9375 -5.851562 4.0625 -5.757812 4.15625 -5.625 C 4.0625 -5.53125 3.929688 -5.453125 3.765625 -5.390625 C 3.609375 -5.328125 3.453125 -5.300781 3.296875 -5.3125 C 3.429688 -5.039062 3.578125 -4.785156 3.734375 -4.546875 C 3.898438 -4.304688 4.054688 -4.054688 4.203125 -3.796875 C 4.460938 -4.015625 4.6875 -4.269531 4.875 -4.5625 C 5.0625 -4.851562 5.253906 -5.132812 5.453125 -5.40625 C 5.359375 -5.457031 5.234375 -5.476562 5.078125 -5.46875 C 4.921875 -5.46875 4.785156 -5.488281 4.671875 -5.53125 C 4.679688 -5.601562 4.695312 -5.675781 4.71875 -5.75 C 4.738281 -5.832031 4.765625 -5.90625 4.796875 -5.96875 C 4.929688 -5.96875 5.070312 -5.96875 5.21875 -5.96875 C 5.375 -5.976562 5.523438 -5.988281 5.671875 -6 L 5.6875 -6 C 5.8125 -6.007812 5.929688 -6.015625 6.046875 -6.015625 C 6.160156 -6.015625 6.28125 -6.003906 6.40625 -5.984375 C 6.53125 -5.972656 6.640625 -5.941406 6.734375 -5.890625 C 6.835938 -5.835938 6.921875 -5.765625 6.984375 -5.671875 C 6.742188 -5.585938 6.539062 -5.472656 6.375 -5.328125 C 6.21875 -5.191406 6.0625 -5.035156 5.90625 -4.859375 C 5.6875 -4.617188 5.484375 -4.351562 5.296875 -4.0625 C 5.109375 -3.769531 4.898438 -3.5 4.671875 -3.25 C 4.898438 -2.832031 5.15625 -2.441406 5.4375 -2.078125 C 5.71875 -1.710938 5.945312 -1.289062 6.125 -0.8125 C 6.363281 -0.78125 6.5625 -0.703125 6.71875 -0.578125 C 6.875 -0.460938 7.039062 -0.359375 7.21875 -0.265625 Z M 7.21875 -0.265625 "/></g></g></g></svg>