<svg xmlns="http://www.w3.org/2000/svg" xmlns:xlink="http://www.w3.org/1999/xlink" width="500" zoomAndPan="magnify" viewBox="0 0 375 374.999991" height="500" preserveAspectRatio="xMidYMid meet" version="1.0"><defs><g/><clipPath id="b2c8995389"><path d="M 148.058594 178.429688 L 260.554688 178.429688 L 260.554688 209.929688 L 148.058594 209.929688 Z M 148.058594 178.429688 " clip-rule="nonzero"/></clipPath><clipPath id="6c376ea0fb"><path d="M 163.722656 178.429688 L 244.890625 178.429688 C 253.542969 178.429688 260.554688 185.441406 260.554688 194.089844 C 260.554688 202.742188 253.542969 209.753906 244.890625 209.753906 L 163.722656 209.753906 C 155.074219 209.753906 148.058594 202.742188 148.058594 194.089844 C 148.058594 185.441406 155.074219 178.429688 163.722656 178.429688 Z M 163.722656 178.429688 " clip-rule="nonzero"/></clipPath></defs><g fill="#edf5fc" fill-opacity="1"><g transform="translate(41.732983, 207.749986)"><g><path d="M 6.84375 -42 L 11.28125 -42 L 11.28125 -3.84375 L 34.796875 -3.84375 L 34.796875 0 L 6.84375 0 Z M 6.84375 -42 "/></g></g></g><g fill="#edf5fc" fill-opacity="1"><g transform="translate(77.072942, 207.749986)"><g><path d="M 33.421875 -14.453125 L 7.015625 -14.453125 C 7.253906 -11.179688 8.515625 -8.535156 10.796875 -6.515625 C 13.078125 -4.492188 15.957031 -3.484375 19.4375 -3.484375 C 21.394531 -3.484375 23.191406 -3.832031 24.828125 -4.53125 C 26.472656 -5.226562 27.894531 -6.257812 29.09375 -7.625 L 31.5 -4.859375 C 30.101562 -3.179688 28.351562 -1.898438 26.25 -1.015625 C 24.144531 -0.140625 21.832031 0.296875 19.3125 0.296875 C 16.070312 0.296875 13.203125 -0.390625 10.703125 -1.765625 C 8.203125 -3.148438 6.253906 -5.0625 4.859375 -7.5 C 3.460938 -9.9375 2.765625 -12.695312 2.765625 -15.78125 C 2.765625 -18.863281 3.429688 -21.625 4.765625 -24.0625 C 6.109375 -26.5 7.945312 -28.394531 10.28125 -29.75 C 12.625 -31.113281 15.257812 -31.796875 18.1875 -31.796875 C 21.101562 -31.796875 23.71875 -31.113281 26.03125 -29.75 C 28.351562 -28.394531 30.175781 -26.503906 31.5 -24.078125 C 32.820312 -21.660156 33.484375 -18.894531 33.484375 -15.78125 Z M 18.1875 -28.140625 C 15.144531 -28.140625 12.59375 -27.164062 10.53125 -25.21875 C 8.46875 -23.28125 7.296875 -20.753906 7.015625 -17.640625 L 29.40625 -17.640625 C 29.125 -20.753906 27.953125 -23.28125 25.890625 -25.21875 C 23.828125 -27.164062 21.257812 -28.140625 18.1875 -28.140625 Z M 18.1875 -28.140625 "/></g></g></g><g fill="#edf5fc" fill-opacity="1"><g transform="translate(113.312911, 207.749986)"><g/></g></g><g fill="#edf5fc" fill-opacity="1"><g transform="translate(129.032892, 207.749986)"><g><path d="M 16.375 -41.21875 C 14.539062 -41.21875 13.148438 -40.71875 12.203125 -39.71875 C 11.265625 -38.71875 10.796875 -37.238281 10.796875 -35.28125 L 10.796875 -31.5625 L 20.515625 -31.5625 L 20.515625 -27.953125 L 10.921875 -27.953125 L 10.921875 0 L 6.65625 0 L 6.65625 -27.953125 L 1.015625 -27.953125 L 1.015625 -31.5625 L 6.65625 -31.5625 L 6.65625 -35.453125 C 6.65625 -38.335938 7.484375 -40.617188 9.140625 -42.296875 C 10.804688 -43.972656 13.160156 -44.8125 16.203125 -44.8125 C 17.398438 -44.8125 18.554688 -44.640625 19.671875 -44.296875 C 20.796875 -43.960938 21.738281 -43.476562 22.5 -42.84375 L 21.0625 -39.65625 C 19.820312 -40.695312 18.257812 -41.21875 16.375 -41.21875 Z M 16.375 -41.21875 "/></g></g></g><g fill="#edf5fc" fill-opacity="1"><g transform="translate(149.381413, 207.749986)"><g/></g></g><g fill="#edf5fc" fill-opacity="1"><g transform="translate(165.101394, 207.749986)"><g/></g></g><g fill="#edf5fc" fill-opacity="1"><g transform="translate(180.821375, 207.749986)"><g/></g></g><g fill="#edf5fc" fill-opacity="1"><g transform="translate(196.541356, 207.749986)"><g/></g></g><g fill="#edf5fc" fill-opacity="1"><g transform="translate(212.261337, 207.749986)"><g/></g></g><g fill="#edf5fc" fill-opacity="1"><g transform="translate(227.981318, 207.749986)"><g/></g></g><g fill="#edf5fc" fill-opacity="1"><g transform="translate(243.701299, 207.749986)"><g/></g></g><g fill="#edf5fc" fill-opacity="1"><g transform="translate(259.432191, 207.749986)"><g><path d="M 35.15625 -31.5625 L 35.15625 -3.84375 C 35.15625 1.519531 33.84375 5.488281 31.21875 8.0625 C 28.601562 10.644531 24.65625 11.9375 19.375 11.9375 C 16.457031 11.9375 13.6875 11.503906 11.0625 10.640625 C 8.445312 9.785156 6.320312 8.597656 4.6875 7.078125 L 6.84375 3.84375 C 8.363281 5.195312 10.210938 6.253906 12.390625 7.015625 C 14.566406 7.773438 16.859375 8.15625 19.265625 8.15625 C 23.265625 8.15625 26.203125 7.222656 28.078125 5.359375 C 29.960938 3.503906 30.90625 0.617188 30.90625 -3.296875 L 30.90625 -7.3125 C 29.582031 -5.3125 27.847656 -3.789062 25.703125 -2.75 C 23.566406 -1.71875 21.195312 -1.203125 18.59375 -1.203125 C 15.632812 -1.203125 12.945312 -1.847656 10.53125 -3.140625 C 8.113281 -4.441406 6.210938 -6.265625 4.828125 -8.609375 C 3.453125 -10.953125 2.765625 -13.601562 2.765625 -16.5625 C 2.765625 -19.519531 3.453125 -22.15625 4.828125 -24.46875 C 6.210938 -26.789062 8.101562 -28.59375 10.5 -29.875 C 12.894531 -31.15625 15.59375 -31.796875 18.59375 -31.796875 C 21.28125 -31.796875 23.703125 -31.253906 25.859375 -30.171875 C 28.015625 -29.097656 29.753906 -27.539062 31.078125 -25.5 L 31.078125 -31.5625 Z M 19.015625 -4.984375 C 21.296875 -4.984375 23.351562 -5.472656 25.1875 -6.453125 C 27.03125 -7.429688 28.460938 -8.800781 29.484375 -10.5625 C 30.503906 -12.320312 31.015625 -14.320312 31.015625 -16.5625 C 31.015625 -18.800781 30.503906 -20.789062 29.484375 -22.53125 C 28.460938 -24.269531 27.039062 -25.628906 25.21875 -26.609375 C 23.40625 -27.585938 21.335938 -28.078125 19.015625 -28.078125 C 16.734375 -28.078125 14.679688 -27.597656 12.859375 -26.640625 C 11.046875 -25.679688 9.628906 -24.320312 8.609375 -22.5625 C 7.585938 -20.800781 7.078125 -18.800781 7.078125 -16.5625 C 7.078125 -14.320312 7.585938 -12.320312 8.609375 -10.5625 C 9.628906 -8.800781 11.046875 -7.429688 12.859375 -6.453125 C 14.679688 -5.472656 16.734375 -4.984375 19.015625 -4.984375 Z M 19.015625 -4.984375 "/></g></g></g><g clip-path="url(#b2c8995389)"><g clip-path="url(#6c376ea0fb)"><path stroke-linecap="butt" transform="matrix(0.75, 0, 0, 0.75, 148.060497, 178.428504)" fill="none" stroke-linejoin="miter" d="M 20.88288 0.00157762 L 129.106846 0.00157762 C 140.643305 0.00157762 149.992264 9.350537 149.992264 20.881787 C 149.992264 32.418246 140.643305 41.767205 129.106846 41.767205 L 20.88288 41.767205 C 9.351629 41.767205 -0.0025379 32.418246 -0.0025379 20.881787 C -0.0025379 9.350537 9.351629 0.00157762 20.88288 0.00157762 Z M 20.88288 0.00157762 " stroke="#edf5fc" stroke-width="10" stroke-opacity="1" stroke-miterlimit="4"/></g></g><g fill="#edf5fc" fill-opacity="1"><g transform="translate(157.300071, 197.091609)"><g><path d="M 1.09375 -0.65625 C 1.113281 -0.9375 1.125 -1.28125 1.125 -1.6875 L 1.109375 -8.03125 C 1.097656 -8.332031 1.070312 -8.734375 1.03125 -9.234375 L 2.046875 -9.390625 C 2.035156 -9.316406 2.023438 -8.882812 2.015625 -8.09375 L 2.015625 -6.09375 C 2.523438 -6.394531 3.128906 -6.546875 3.828125 -6.546875 C 4.453125 -6.546875 5.039062 -6.40625 5.59375 -6.125 C 6.144531 -5.832031 6.566406 -5.441406 6.859375 -4.953125 C 7.140625 -4.492188 7.28125 -3.976562 7.28125 -3.40625 C 7.28125 -2.78125 7.125 -2.1875 6.8125 -1.625 C 6.164062 -0.457031 5.132812 0.125 3.71875 0.125 C 3.332031 0.125 2.890625 0.0507812 2.390625 -0.09375 C 1.890625 -0.25 1.457031 -0.4375 1.09375 -0.65625 Z M 2 -1.28125 C 2.238281 -1.082031 2.519531 -0.925781 2.84375 -0.8125 C 3.175781 -0.695312 3.503906 -0.640625 3.828125 -0.640625 C 4.160156 -0.640625 4.492188 -0.707031 4.828125 -0.84375 C 5.160156 -0.988281 5.445312 -1.1875 5.6875 -1.4375 C 6.125 -1.875 6.34375 -2.460938 6.34375 -3.203125 C 6.34375 -3.921875 6.117188 -4.53125 5.671875 -5.03125 C 5.242188 -5.507812 4.582031 -5.75 3.6875 -5.75 C 3.050781 -5.75 2.488281 -5.578125 2 -5.234375 Z M 2 -1.28125 "/></g></g></g><g fill="#edf5fc" fill-opacity="1"><g transform="translate(165.040866, 197.091609)"><g><path d="M 6.609375 -1.234375 C 6.109375 -0.710938 5.671875 -0.363281 5.296875 -0.1875 C 4.785156 0.0625 4.265625 0.1875 3.734375 0.1875 C 2.722656 0.1875 1.90625 -0.1875 1.28125 -0.9375 C 0.738281 -1.582031 0.46875 -2.320312 0.46875 -3.15625 C 0.46875 -3.726562 0.609375 -4.296875 0.890625 -4.859375 C 1.160156 -5.378906 1.519531 -5.800781 1.96875 -6.125 C 2.46875 -6.488281 3.050781 -6.671875 3.71875 -6.671875 C 4.445312 -6.671875 5.101562 -6.429688 5.6875 -5.953125 C 6.4375 -5.347656 6.8125 -4.535156 6.8125 -3.515625 C 6.8125 -3.421875 6.800781 -3.328125 6.78125 -3.234375 L 1.421875 -3.234375 C 1.410156 -3.140625 1.40625 -3.082031 1.40625 -3.0625 C 1.40625 -2.757812 1.484375 -2.4375 1.640625 -2.09375 C 1.804688 -1.757812 2.019531 -1.472656 2.28125 -1.234375 C 2.695312 -0.835938 3.203125 -0.640625 3.796875 -0.640625 C 4.628906 -0.640625 5.390625 -1.007812 6.078125 -1.75 Z M 1.53125 -3.953125 L 5.90625 -3.953125 C 5.832031 -4.328125 5.707031 -4.648438 5.53125 -4.921875 C 5.320312 -5.222656 5.054688 -5.460938 4.734375 -5.640625 C 4.421875 -5.816406 4.082031 -5.90625 3.71875 -5.90625 C 3.15625 -5.90625 2.664062 -5.722656 2.25 -5.359375 C 1.84375 -4.992188 1.601562 -4.523438 1.53125 -3.953125 Z M 1.53125 -3.953125 "/></g></g></g><g fill="#edf5fc" fill-opacity="1"><g transform="translate(172.317076, 197.091609)"><g><path d="M 1.109375 0 C 1.109375 -0.0078125 1.125 -0.351562 1.15625 -1.03125 L 1.15625 -4.53125 C 1.15625 -5.007812 1.113281 -5.390625 1.03125 -5.671875 C 2.132812 -6.328125 3.097656 -6.65625 3.921875 -6.65625 C 4.585938 -6.65625 5.171875 -6.472656 5.671875 -6.109375 C 5.984375 -5.890625 6.203125 -5.625 6.328125 -5.3125 C 6.453125 -5.007812 6.515625 -4.585938 6.515625 -4.046875 L 6.5 -2.15625 L 6.515625 -1.15625 L 6.515625 -1.125 C 6.523438 -0.488281 6.539062 -0.113281 6.5625 0 L 5.46875 0 L 5.46875 -0.0625 C 5.539062 -0.789062 5.578125 -1.332031 5.578125 -1.6875 L 5.578125 -3.953125 C 5.578125 -4.398438 5.5 -4.78125 5.34375 -5.09375 C 5.226562 -5.3125 5.050781 -5.484375 4.8125 -5.609375 C 4.539062 -5.753906 4.242188 -5.828125 3.921875 -5.828125 C 3.273438 -5.828125 2.664062 -5.648438 2.09375 -5.296875 L 2.09375 -1.578125 C 2.09375 -1.160156 2.125 -0.632812 2.1875 0 Z M 1.109375 0 "/></g></g></g><g fill="#edf5fc" fill-opacity="1"><g transform="translate(179.866572, 197.091609)"><g><path d="M 6.28125 -0.65625 C 5.363281 -0.125 4.523438 0.140625 3.765625 0.140625 C 2.785156 0.140625 1.972656 -0.1875 1.328125 -0.84375 C 0.742188 -1.425781 0.453125 -2.1875 0.453125 -3.125 C 0.453125 -3.882812 0.65625 -4.570312 1.0625 -5.1875 C 1.40625 -5.6875 1.851562 -6.054688 2.40625 -6.296875 C 2.84375 -6.484375 3.320312 -6.578125 3.84375 -6.578125 C 4.351562 -6.578125 4.835938 -6.460938 5.296875 -6.234375 L 5.28125 -7.703125 C 5.28125 -7.742188 5.28125 -7.789062 5.28125 -7.84375 L 5.203125 -9.28125 L 6.296875 -9.46875 C 6.253906 -9.351562 6.226562 -8.941406 6.21875 -8.234375 L 6.21875 -8.1875 L 6.234375 -4.390625 L 6.21875 -1.921875 C 6.21875 -1.367188 6.238281 -0.945312 6.28125 -0.65625 Z M 5.3125 -1 L 5.3125 -5.5 C 4.863281 -5.75 4.390625 -5.875 3.890625 -5.875 C 3.171875 -5.875 2.566406 -5.644531 2.078125 -5.1875 C 1.566406 -4.6875 1.3125 -4.039062 1.3125 -3.25 C 1.3125 -2.375 1.625 -1.6875 2.25 -1.1875 C 2.707031 -0.820312 3.234375 -0.640625 3.828125 -0.640625 C 4.421875 -0.640625 4.914062 -0.757812 5.3125 -1 Z M 5.3125 -1 "/></g></g></g><g fill="#edf5fc" fill-opacity="1"><g transform="translate(187.176942, 197.091609)"><g/></g></g><g fill="#edf5fc" fill-opacity="1"><g transform="translate(190.538347, 197.091609)"><g><path d="M 0.390625 2.734375 L 0.65625 2.015625 C 0.945312 2.140625 1.21875 2.203125 1.46875 2.203125 C 1.800781 2.203125 2.078125 2.097656 2.296875 1.890625 C 2.515625 1.679688 2.742188 1.3125 2.984375 0.78125 L 3.421875 -0.203125 L 0.28125 -6.21875 L 1.078125 -6.609375 C 1.296875 -6.085938 1.523438 -5.582031 1.765625 -5.09375 C 2.015625 -4.613281 2.695312 -3.316406 3.8125 -1.203125 L 5.3125 -4.703125 C 5.71875 -5.671875 5.96875 -6.300781 6.0625 -6.59375 L 6.859375 -6.21875 L 3.515625 1.265625 C 3.003906 2.398438 2.28125 2.96875 1.34375 2.96875 C 1.101562 2.96875 0.785156 2.890625 0.390625 2.734375 Z M 0.390625 2.734375 "/></g></g></g><g fill="#edf5fc" fill-opacity="1"><g transform="translate(197.356736, 197.091609)"><g><path d="M 3.921875 -6.6875 C 4.972656 -6.6875 5.828125 -6.28125 6.484375 -5.46875 C 7.003906 -4.832031 7.265625 -4.085938 7.265625 -3.234375 C 7.265625 -2.515625 7.0625 -1.859375 6.65625 -1.265625 C 6.351562 -0.828125 5.957031 -0.472656 5.46875 -0.203125 C 4.957031 0.078125 4.398438 0.21875 3.796875 0.21875 C 3.160156 0.21875 2.566406 0.0351562 2.015625 -0.328125 C 1.441406 -0.710938 1.019531 -1.234375 0.75 -1.890625 C 0.5625 -2.328125 0.46875 -2.769531 0.46875 -3.21875 C 0.46875 -4.238281 0.859375 -5.109375 1.640625 -5.828125 C 2.265625 -6.398438 3.023438 -6.6875 3.921875 -6.6875 Z M 3.90625 -5.8125 C 3.21875 -5.8125 2.628906 -5.546875 2.140625 -5.015625 C 1.679688 -4.515625 1.453125 -3.921875 1.453125 -3.234375 C 1.453125 -2.503906 1.675781 -1.882812 2.125 -1.375 C 2.59375 -0.820312 3.160156 -0.546875 3.828125 -0.546875 C 4.554688 -0.546875 5.171875 -0.84375 5.671875 -1.4375 C 6.109375 -1.957031 6.328125 -2.554688 6.328125 -3.234375 C 6.328125 -3.953125 6.082031 -4.570312 5.59375 -5.09375 C 5.144531 -5.570312 4.582031 -5.8125 3.90625 -5.8125 Z M 3.90625 -5.8125 "/></g></g></g><g fill="#edf5fc" fill-opacity="1"><g transform="translate(205.083867, 197.091609)"><g><path d="M 5.953125 0.171875 C 5.816406 -0.0546875 5.707031 -0.316406 5.625 -0.609375 C 5.03125 -0.0859375 4.351562 0.171875 3.59375 0.171875 C 2.925781 0.171875 2.347656 -0.0351562 1.859375 -0.453125 C 1.316406 -0.898438 1.046875 -1.578125 1.046875 -2.484375 L 1.046875 -5.296875 C 1.046875 -5.421875 1.039062 -5.601562 1.03125 -5.84375 C 1.019531 -6.050781 1.007812 -6.25 1 -6.4375 L 2 -6.4375 C 1.988281 -6.332031 1.976562 -5.957031 1.96875 -5.3125 L 1.96875 -2.5 C 1.96875 -1.90625 2.070312 -1.472656 2.28125 -1.203125 C 2.601562 -0.796875 3.066406 -0.59375 3.671875 -0.59375 C 4.085938 -0.59375 4.53125 -0.734375 5 -1.015625 C 5.226562 -1.160156 5.382812 -1.296875 5.46875 -1.421875 L 5.453125 -6.4375 L 6.421875 -6.4375 L 6.421875 -6.359375 C 6.367188 -5.523438 6.34375 -4.71875 6.34375 -3.9375 L 6.359375 -1.765625 C 6.359375 -1.117188 6.460938 -0.566406 6.671875 -0.109375 Z M 5.953125 0.171875 "/></g></g></g><g fill="#edf5fc" fill-opacity="1"><g transform="translate(212.510383, 197.091609)"><g><path d="M 1.09375 0 C 1.09375 -0.03125 1.09375 -0.046875 1.09375 -0.046875 C 1.09375 -0.0976562 1.113281 -0.332031 1.15625 -0.75 C 1.175781 -0.875 1.1875 -1.097656 1.1875 -1.421875 L 1.1875 -4.328125 C 1.1875 -5.015625 1.132812 -5.632812 1.03125 -6.1875 L 1.9375 -6.390625 C 1.96875 -6.179688 1.992188 -5.910156 2.015625 -5.578125 C 2.234375 -5.910156 2.445312 -6.132812 2.65625 -6.25 C 2.894531 -6.382812 3.164062 -6.453125 3.46875 -6.453125 C 3.769531 -6.453125 4.050781 -6.378906 4.3125 -6.234375 L 4.09375 -5.421875 C 3.851562 -5.535156 3.609375 -5.59375 3.359375 -5.59375 C 3.023438 -5.59375 2.757812 -5.476562 2.5625 -5.25 C 2.363281 -5.03125 2.234375 -4.765625 2.171875 -4.453125 C 2.109375 -4.148438 2.078125 -3.671875 2.078125 -3.015625 C 2.078125 -1.460938 2.09375 -0.457031 2.125 0 Z M 1.09375 0 "/></g></g></g><g fill="#edf5fc" fill-opacity="1"><g transform="translate(216.964927, 197.091609)"><g/></g></g><g fill="#edf5fc" fill-opacity="1"><g transform="translate(220.326332, 197.091609)"><g><path d="M 1.078125 0 C 1.109375 -0.257812 1.125 -0.789062 1.125 -1.59375 L 1.109375 -6.984375 L 1.078125 -8.109375 C 1.054688 -8.828125 1.039062 -9.21875 1.03125 -9.28125 L 2.046875 -9.421875 L 2.03125 -5.984375 C 2.269531 -6.160156 2.570312 -6.304688 2.9375 -6.421875 C 3.300781 -6.535156 3.644531 -6.59375 3.96875 -6.59375 C 4.675781 -6.59375 5.285156 -6.347656 5.796875 -5.859375 C 6.046875 -5.617188 6.21875 -5.332031 6.3125 -5 C 6.414062 -4.675781 6.46875 -4.238281 6.46875 -3.6875 L 6.46875 -1.671875 C 6.476562 -0.765625 6.5 -0.207031 6.53125 0 L 5.5 0 C 5.53125 -0.15625 5.554688 -0.710938 5.578125 -1.671875 L 5.578125 -3.09375 C 5.585938 -3.914062 5.519531 -4.492188 5.375 -4.828125 C 5.28125 -5.054688 5.15625 -5.234375 5 -5.359375 C 4.675781 -5.640625 4.273438 -5.78125 3.796875 -5.78125 C 3.148438 -5.78125 2.5625 -5.550781 2.03125 -5.09375 L 2.03125 -1.40625 L 2.0625 -0.671875 C 2.070312 -0.265625 2.078125 -0.0390625 2.078125 0 Z M 1.078125 0 "/></g></g></g><g fill="#edf5fc" fill-opacity="1"><g transform="translate(227.868995, 197.091609)"><g><path d="M 6.609375 -1.234375 C 6.109375 -0.710938 5.671875 -0.363281 5.296875 -0.1875 C 4.785156 0.0625 4.265625 0.1875 3.734375 0.1875 C 2.722656 0.1875 1.90625 -0.1875 1.28125 -0.9375 C 0.738281 -1.582031 0.46875 -2.320312 0.46875 -3.15625 C 0.46875 -3.726562 0.609375 -4.296875 0.890625 -4.859375 C 1.160156 -5.378906 1.519531 -5.800781 1.96875 -6.125 C 2.46875 -6.488281 3.050781 -6.671875 3.71875 -6.671875 C 4.445312 -6.671875 5.101562 -6.429688 5.6875 -5.953125 C 6.4375 -5.347656 6.8125 -4.535156 6.8125 -3.515625 C 6.8125 -3.421875 6.800781 -3.328125 6.78125 -3.234375 L 1.421875 -3.234375 C 1.410156 -3.140625 1.40625 -3.082031 1.40625 -3.0625 C 1.40625 -2.757812 1.484375 -2.4375 1.640625 -2.09375 C 1.804688 -1.757812 2.019531 -1.472656 2.28125 -1.234375 C 2.695312 -0.835938 3.203125 -0.640625 3.796875 -0.640625 C 4.628906 -0.640625 5.390625 -1.007812 6.078125 -1.75 Z M 1.53125 -3.953125 L 5.90625 -3.953125 C 5.832031 -4.328125 5.707031 -4.648438 5.53125 -4.921875 C 5.320312 -5.222656 5.054688 -5.460938 4.734375 -5.640625 C 4.421875 -5.816406 4.082031 -5.90625 3.71875 -5.90625 C 3.15625 -5.90625 2.664062 -5.722656 2.25 -5.359375 C 1.84375 -4.992188 1.601562 -4.523438 1.53125 -3.953125 Z M 1.53125 -3.953125 "/></g></g></g><g fill="#edf5fc" fill-opacity="1"><g transform="translate(235.029036, 197.091609)"><g><path d="M 5.171875 0.109375 C 5.078125 -0.128906 5.015625 -0.375 4.984375 -0.625 C 4.546875 -0.320312 4.195312 -0.125 3.9375 -0.03125 C 3.6875 0.0625 3.378906 0.109375 3.015625 0.109375 C 2.242188 0.109375 1.644531 -0.113281 1.21875 -0.5625 C 0.78125 -1.039062 0.5625 -1.597656 0.5625 -2.234375 C 0.5625 -2.609375 0.644531 -2.96875 0.8125 -3.3125 C 0.988281 -3.65625 1.226562 -3.941406 1.53125 -4.171875 C 1.957031 -4.484375 2.488281 -4.640625 3.125 -4.640625 C 3.695312 -4.640625 4.269531 -4.425781 4.84375 -4 C 4.851562 -4.082031 4.859375 -4.140625 4.859375 -4.171875 C 4.859375 -4.710938 4.691406 -5.132812 4.359375 -5.4375 C 4.046875 -5.71875 3.609375 -5.859375 3.046875 -5.859375 C 2.597656 -5.859375 2.0625 -5.679688 1.4375 -5.328125 L 1.15625 -6.015625 C 1.90625 -6.378906 2.59375 -6.5625 3.21875 -6.5625 C 3.96875 -6.5625 4.578125 -6.375 5.046875 -6 C 5.285156 -5.789062 5.445312 -5.554688 5.53125 -5.296875 C 5.625 -5.035156 5.671875 -4.648438 5.671875 -4.140625 C 5.671875 -3.515625 5.671875 -3.082031 5.671875 -2.84375 C 5.660156 -2.550781 5.65625 -2.375 5.65625 -2.3125 C 5.65625 -1.863281 5.679688 -1.40625 5.734375 -0.9375 C 5.753906 -0.675781 5.828125 -0.414062 5.953125 -0.15625 Z M 3.0625 -3.90625 C 2.601562 -3.90625 2.207031 -3.769531 1.875 -3.5 C 1.550781 -3.226562 1.390625 -2.859375 1.390625 -2.390625 C 1.390625 -1.742188 1.632812 -1.265625 2.125 -0.953125 C 2.425781 -0.753906 2.769531 -0.65625 3.15625 -0.65625 C 3.675781 -0.65625 4.097656 -0.8125 4.421875 -1.125 C 4.722656 -1.414062 4.875 -1.789062 4.875 -2.25 C 4.875 -2.757812 4.6875 -3.164062 4.3125 -3.46875 C 3.957031 -3.757812 3.539062 -3.90625 3.0625 -3.90625 Z M 3.0625 -3.90625 "/></g></g></g><g fill="#edf5fc" fill-opacity="1"><g transform="translate(241.731348, 197.091609)"><g><path d="M 1.09375 0 C 1.09375 -0.03125 1.09375 -0.046875 1.09375 -0.046875 C 1.09375 -0.0976562 1.113281 -0.332031 1.15625 -0.75 C 1.175781 -0.875 1.1875 -1.097656 1.1875 -1.421875 L 1.1875 -4.328125 C 1.1875 -5.015625 1.132812 -5.632812 1.03125 -6.1875 L 1.9375 -6.390625 C 1.96875 -6.179688 1.992188 -5.910156 2.015625 -5.578125 C 2.234375 -5.910156 2.445312 -6.132812 2.65625 -6.25 C 2.894531 -6.382812 3.164062 -6.453125 3.46875 -6.453125 C 3.769531 -6.453125 4.050781 -6.378906 4.3125 -6.234375 L 4.09375 -5.421875 C 3.851562 -5.535156 3.609375 -5.59375 3.359375 -5.59375 C 3.023438 -5.59375 2.757812 -5.476562 2.5625 -5.25 C 2.363281 -5.03125 2.234375 -4.765625 2.171875 -4.453125 C 2.109375 -4.148438 2.078125 -3.671875 2.078125 -3.015625 C 2.078125 -1.460938 2.09375 -0.457031 2.125 0 Z M 1.09375 0 "/></g></g></g><g fill="#edf5fc" fill-opacity="1"><g transform="translate(246.254224, 197.091609)"><g><path d="M 4.703125 -0.25 C 4.253906 0 3.804688 0.125 3.359375 0.125 C 2.878906 0.125 2.460938 -0.0078125 2.109375 -0.28125 C 1.628906 -0.632812 1.390625 -1.257812 1.390625 -2.15625 C 1.390625 -2.1875 1.390625 -2.234375 1.390625 -2.296875 C 1.398438 -3.097656 1.40625 -3.609375 1.40625 -3.828125 C 1.40625 -4.035156 1.390625 -4.460938 1.359375 -5.109375 L 0.59375 -5.109375 L 0.5625 -5.84375 L 1.375 -5.84375 L 1.390625 -6.6875 C 1.398438 -6.84375 1.394531 -7.082031 1.375 -7.40625 C 1.34375 -7.75 1.328125 -7.984375 1.328125 -8.109375 L 2.3125 -8.109375 C 2.320312 -8.085938 2.328125 -8.070312 2.328125 -8.0625 C 2.328125 -7.9375 2.316406 -7.707031 2.296875 -7.375 C 2.285156 -7.257812 2.273438 -7.03125 2.265625 -6.6875 L 2.25 -5.84375 L 4.359375 -5.859375 L 4.359375 -5.109375 L 2.25 -5.109375 L 2.25 -2.25 C 2.25 -1.726562 2.316406 -1.351562 2.453125 -1.125 C 2.660156 -0.78125 2.992188 -0.609375 3.453125 -0.609375 C 3.835938 -0.609375 4.160156 -0.695312 4.421875 -0.875 Z M 4.703125 -0.25 "/></g></g></g></svg>